<?xml version="1.0" encoding="UTF-8" standalone="no"?>
<svg width="183.444mm" height="141.111mm"
 viewBox="0 0 520 400"
 xmlns="http://www.w3.org/2000/svg" xmlns:xlink="http://www.w3.org/1999/xlink"  version="1.2" baseProfile="tiny">
<title>Qt SVG Document</title>
<desc>Generated with Qt</desc>
<defs>
</defs>
<g fill="none" stroke="black" stroke-width="1" fill-rule="evenodd" stroke-linecap="square" stroke-linejoin="bevel" >

<g fill="none" stroke="#000000" stroke-opacity="1" stroke-width="1" stroke-linecap="square" stroke-linejoin="bevel" transform="matrix(1,0,0,1,0,0)"
font-family="Sans Serif" font-size="9" font-weight="400" font-style="normal" 
>
</g>

<g fill="none" stroke="#000000" stroke-opacity="1" stroke-width="1" stroke-linecap="square" stroke-linejoin="bevel" transform="matrix(1,0,0,1,0,0)"
font-family="Sans Serif" font-size="9" font-weight="400" font-style="normal" 
>
</g>

<g fill="#787878" fill-opacity="1" stroke="#000000" stroke-opacity="0" stroke-width="1" stroke-linecap="square" stroke-linejoin="bevel" transform="matrix(28.8889,22.2222,-28.8889,22.2222,317.778,44.4444)"
font-family="Sans Serif" font-size="9" font-weight="400" font-style="normal" 
>
<rect x="0.18" y="0.18" width="0.64" height="0.64"/>
<rect x="0.8" y="0.18" width="0.21" height="0.64"/>
<rect x="0.18" y="0.8" width="0.64" height="0.21"/>
</g>

<g fill="none" stroke="#000000" stroke-opacity="1" stroke-width="1" stroke-linecap="square" stroke-linejoin="bevel" transform="matrix(1,0,0,1,0,0)"
font-family="Sans Serif" font-size="9" font-weight="400" font-style="normal" 
>
</g>

<g fill="#636363" fill-opacity="1" stroke="#000000" stroke-opacity="0" stroke-width="1" stroke-linecap="square" stroke-linejoin="bevel" transform="matrix(28.8889,22.2222,-28.8889,22.2222,346.667,66.6667)"
font-family="Sans Serif" font-size="9" font-weight="400" font-style="normal" 
>
<rect x="-0.01" y="-0.01" width="1.02" height="1.02"/>
</g>

<g fill="#f44336" fill-opacity="0.666667" stroke="#000000" stroke-opacity="0" stroke-width="1" stroke-linecap="square" stroke-linejoin="bevel" transform="matrix(28.8889,22.2222,-28.8889,22.2222,346.667,66.6667)"
font-family="Sans Serif" font-size="9" font-weight="400" font-style="normal" 
>
<path vector-effect="none" fill-rule="evenodd" d="M0.125,0 L0.375,0 L0,0.375 L0,0.125 L0.125,0"/>
<path vector-effect="none" fill-rule="evenodd" d="M0.625,0 L0.875,0 L0,0.875 L0,0.625 L0.625,0"/>
<path vector-effect="none" fill-rule="evenodd" d="M0.125,1 L0.375,1 L1,0.375 L1,0.125 L0.125,1"/>
<path vector-effect="none" fill-rule="evenodd" d="M0.625,1 L0.875,1 L1,0.875 L1,0.625 L0.625,1"/>
</g>

<g fill="none" stroke="#000000" stroke-opacity="1" stroke-width="1" stroke-linecap="square" stroke-linejoin="bevel" transform="matrix(1,0,0,1,0,0)"
font-family="Sans Serif" font-size="9" font-weight="400" font-style="normal" 
>
</g>

<g fill="#636363" fill-opacity="1" stroke="#000000" stroke-opacity="0" stroke-width="1" stroke-linecap="square" stroke-linejoin="bevel" transform="matrix(28.8889,22.2222,-28.8889,22.2222,375.556,88.8889)"
font-family="Sans Serif" font-size="9" font-weight="400" font-style="normal" 
>
<rect x="-0.01" y="-0.01" width="1.02" height="1.02"/>
</g>

<g fill="#f44336" fill-opacity="0.666667" stroke="#000000" stroke-opacity="0" stroke-width="1" stroke-linecap="square" stroke-linejoin="bevel" transform="matrix(28.8889,22.2222,-28.8889,22.2222,375.556,88.8889)"
font-family="Sans Serif" font-size="9" font-weight="400" font-style="normal" 
>
<path vector-effect="none" fill-rule="evenodd" d="M0.125,0 L0.375,0 L0,0.375 L0,0.125 L0.125,0"/>
<path vector-effect="none" fill-rule="evenodd" d="M0.625,0 L0.875,0 L0,0.875 L0,0.625 L0.625,0"/>
<path vector-effect="none" fill-rule="evenodd" d="M0.125,1 L0.375,1 L1,0.375 L1,0.125 L0.125,1"/>
<path vector-effect="none" fill-rule="evenodd" d="M0.625,1 L0.875,1 L1,0.875 L1,0.625 L0.625,1"/>
</g>

<g fill="none" stroke="#000000" stroke-opacity="1" stroke-width="1" stroke-linecap="square" stroke-linejoin="bevel" transform="matrix(1,0,0,1,0,0)"
font-family="Sans Serif" font-size="9" font-weight="400" font-style="normal" 
>
</g>

<g fill="#636363" fill-opacity="1" stroke="#000000" stroke-opacity="0" stroke-width="1" stroke-linecap="square" stroke-linejoin="bevel" transform="matrix(28.8889,22.2222,-28.8889,22.2222,404.444,111.111)"
font-family="Sans Serif" font-size="9" font-weight="400" font-style="normal" 
>
<rect x="-0.01" y="-0.01" width="1.02" height="1.02"/>
</g>

<g fill="#f44336" fill-opacity="0.666667" stroke="#000000" stroke-opacity="0" stroke-width="1" stroke-linecap="square" stroke-linejoin="bevel" transform="matrix(28.8889,22.2222,-28.8889,22.2222,404.444,111.111)"
font-family="Sans Serif" font-size="9" font-weight="400" font-style="normal" 
>
<path vector-effect="none" fill-rule="evenodd" d="M0.125,0 L0.375,0 L0,0.375 L0,0.125 L0.125,0"/>
<path vector-effect="none" fill-rule="evenodd" d="M0.625,0 L0.875,0 L0,0.875 L0,0.625 L0.625,0"/>
<path vector-effect="none" fill-rule="evenodd" d="M0.125,1 L0.375,1 L1,0.375 L1,0.125 L0.125,1"/>
<path vector-effect="none" fill-rule="evenodd" d="M0.625,1 L0.875,1 L1,0.875 L1,0.625 L0.625,1"/>
</g>

<g fill="none" stroke="#000000" stroke-opacity="1" stroke-width="1" stroke-linecap="square" stroke-linejoin="bevel" transform="matrix(1,0,0,1,0,0)"
font-family="Sans Serif" font-size="9" font-weight="400" font-style="normal" 
>
</g>

<g fill="none" stroke="#000000" stroke-opacity="1" stroke-width="1" stroke-linecap="square" stroke-linejoin="bevel" transform="matrix(1,0,0,1,0,0)"
font-family="Sans Serif" font-size="9" font-weight="400" font-style="normal" 
>
</g>

<g fill="none" stroke="#000000" stroke-opacity="1" stroke-width="1" stroke-linecap="square" stroke-linejoin="bevel" transform="matrix(1,0,0,1,0,0)"
font-family="Sans Serif" font-size="9" font-weight="400" font-style="normal" 
>
</g>

<g fill="none" stroke="#000000" stroke-opacity="1" stroke-width="1" stroke-linecap="square" stroke-linejoin="bevel" transform="matrix(1,0,0,1,0,0)"
font-family="Sans Serif" font-size="9" font-weight="400" font-style="normal" 
>
</g>

<g fill="#787878" fill-opacity="1" stroke="#000000" stroke-opacity="0" stroke-width="1" stroke-linecap="square" stroke-linejoin="bevel" transform="matrix(28.8889,22.2222,-28.8889,22.2222,288.889,66.6667)"
font-family="Sans Serif" font-size="9" font-weight="400" font-style="normal" 
>
<rect x="0.18" y="0.18" width="0.64" height="0.64"/>
<rect x="0.18" y="-0.01" width="0.64" height="0.21"/>
<rect x="0.18" y="0.8" width="0.64" height="0.21"/>
</g>

<g fill="none" stroke="#000000" stroke-opacity="1" stroke-width="1" stroke-linecap="square" stroke-linejoin="bevel" transform="matrix(1,0,0,1,0,0)"
font-family="Sans Serif" font-size="9" font-weight="400" font-style="normal" 
>
</g>

<g fill="#636363" fill-opacity="1" stroke="#000000" stroke-opacity="0" stroke-width="1" stroke-linecap="square" stroke-linejoin="bevel" transform="matrix(28.8889,22.2222,-28.8889,22.2222,317.778,88.8889)"
font-family="Sans Serif" font-size="9" font-weight="400" font-style="normal" 
>
<rect x="-0.01" y="-0.01" width="1.02" height="1.02"/>
</g>

<g fill="#f44336" fill-opacity="0.666667" stroke="#000000" stroke-opacity="0" stroke-width="1" stroke-linecap="square" stroke-linejoin="bevel" transform="matrix(28.8889,22.2222,-28.8889,22.2222,317.778,88.8889)"
font-family="Sans Serif" font-size="9" font-weight="400" font-style="normal" 
>
<path vector-effect="none" fill-rule="evenodd" d="M0.125,0 L0.375,0 L0,0.375 L0,0.125 L0.125,0"/>
<path vector-effect="none" fill-rule="evenodd" d="M0.625,0 L0.875,0 L0,0.875 L0,0.625 L0.625,0"/>
<path vector-effect="none" fill-rule="evenodd" d="M0.125,1 L0.375,1 L1,0.375 L1,0.125 L0.125,1"/>
<path vector-effect="none" fill-rule="evenodd" d="M0.625,1 L0.875,1 L1,0.875 L1,0.625 L0.625,1"/>
</g>

<g fill="none" stroke="#000000" stroke-opacity="1" stroke-width="1" stroke-linecap="square" stroke-linejoin="bevel" transform="matrix(1,0,0,1,0,0)"
font-family="Sans Serif" font-size="9" font-weight="400" font-style="normal" 
>
</g>

<g fill="#636363" fill-opacity="1" stroke="#000000" stroke-opacity="0" stroke-width="1" stroke-linecap="square" stroke-linejoin="bevel" transform="matrix(28.8889,22.2222,-28.8889,22.2222,346.667,111.111)"
font-family="Sans Serif" font-size="9" font-weight="400" font-style="normal" 
>
<rect x="-0.01" y="-0.01" width="1.02" height="1.02"/>
</g>

<g fill="#f44336" fill-opacity="0.666667" stroke="#000000" stroke-opacity="0" stroke-width="1" stroke-linecap="square" stroke-linejoin="bevel" transform="matrix(28.8889,22.2222,-28.8889,22.2222,346.667,111.111)"
font-family="Sans Serif" font-size="9" font-weight="400" font-style="normal" 
>
<path vector-effect="none" fill-rule="evenodd" d="M0.125,0 L0.375,0 L0,0.375 L0,0.125 L0.125,0"/>
<path vector-effect="none" fill-rule="evenodd" d="M0.625,0 L0.875,0 L0,0.875 L0,0.625 L0.625,0"/>
<path vector-effect="none" fill-rule="evenodd" d="M0.125,1 L0.375,1 L1,0.375 L1,0.125 L0.125,1"/>
<path vector-effect="none" fill-rule="evenodd" d="M0.625,1 L0.875,1 L1,0.875 L1,0.625 L0.625,1"/>
</g>

<g fill="none" stroke="#000000" stroke-opacity="1" stroke-width="1" stroke-linecap="square" stroke-linejoin="bevel" transform="matrix(1,0,0,1,0,0)"
font-family="Sans Serif" font-size="9" font-weight="400" font-style="normal" 
>
</g>

<g fill="#636363" fill-opacity="1" stroke="#000000" stroke-opacity="0" stroke-width="1" stroke-linecap="square" stroke-linejoin="bevel" transform="matrix(28.8889,22.2222,-28.8889,22.2222,375.556,133.333)"
font-family="Sans Serif" font-size="9" font-weight="400" font-style="normal" 
>
<rect x="-0.01" y="-0.01" width="1.02" height="1.02"/>
</g>

<g fill="#f44336" fill-opacity="0.666667" stroke="#000000" stroke-opacity="0" stroke-width="1" stroke-linecap="square" stroke-linejoin="bevel" transform="matrix(28.8889,22.2222,-28.8889,22.2222,375.556,133.333)"
font-family="Sans Serif" font-size="9" font-weight="400" font-style="normal" 
>
<path vector-effect="none" fill-rule="evenodd" d="M0.125,0 L0.375,0 L0,0.375 L0,0.125 L0.125,0"/>
<path vector-effect="none" fill-rule="evenodd" d="M0.625,0 L0.875,0 L0,0.875 L0,0.625 L0.625,0"/>
<path vector-effect="none" fill-rule="evenodd" d="M0.125,1 L0.375,1 L1,0.375 L1,0.125 L0.125,1"/>
<path vector-effect="none" fill-rule="evenodd" d="M0.625,1 L0.875,1 L1,0.875 L1,0.625 L0.625,1"/>
</g>

<g fill="none" stroke="#000000" stroke-opacity="1" stroke-width="1" stroke-linecap="square" stroke-linejoin="bevel" transform="matrix(1,0,0,1,0,0)"
font-family="Sans Serif" font-size="9" font-weight="400" font-style="normal" 
>
</g>

<g fill="#787878" fill-opacity="1" stroke="#000000" stroke-opacity="0" stroke-width="1" stroke-linecap="square" stroke-linejoin="bevel" transform="matrix(28.8889,22.2222,-28.8889,22.2222,404.444,155.556)"
font-family="Sans Serif" font-size="9" font-weight="400" font-style="normal" 
>
<rect x="0.18" y="0.18" width="0.64" height="0.64"/>
<rect x="0.18" y="0.8" width="0.64" height="0.21"/>
<rect x="-0.01" y="0.18" width="0.21" height="0.64"/>
</g>

<g fill="none" stroke="#000000" stroke-opacity="1" stroke-width="1" stroke-linecap="square" stroke-linejoin="bevel" transform="matrix(1,0,0,1,0,0)"
font-family="Sans Serif" font-size="9" font-weight="400" font-style="normal" 
>
</g>

<g fill="none" stroke="#000000" stroke-opacity="1" stroke-width="1" stroke-linecap="square" stroke-linejoin="bevel" transform="matrix(1,0,0,1,0,0)"
font-family="Sans Serif" font-size="9" font-weight="400" font-style="normal" 
>
</g>

<g fill="none" stroke="#000000" stroke-opacity="1" stroke-width="1" stroke-linecap="square" stroke-linejoin="bevel" transform="matrix(1,0,0,1,0,0)"
font-family="Sans Serif" font-size="9" font-weight="400" font-style="normal" 
>
</g>

<g fill="#787878" fill-opacity="1" stroke="#000000" stroke-opacity="0" stroke-width="1" stroke-linecap="square" stroke-linejoin="bevel" transform="matrix(28.8889,22.2222,-28.8889,22.2222,260,88.8889)"
font-family="Sans Serif" font-size="9" font-weight="400" font-style="normal" 
>
<rect x="0.18" y="0.18" width="0.64" height="0.64"/>
<rect x="0.18" y="0.8" width="0.64" height="0.21"/>
</g>

<g fill="none" stroke="#000000" stroke-opacity="1" stroke-width="1" stroke-linecap="square" stroke-linejoin="bevel" transform="matrix(1,0,0,1,0,0)"
font-family="Sans Serif" font-size="9" font-weight="400" font-style="normal" 
>
</g>

<g fill="none" stroke="#000000" stroke-opacity="1" stroke-width="1" stroke-linecap="square" stroke-linejoin="bevel" transform="matrix(1,0,0,1,0,0)"
font-family="Sans Serif" font-size="9" font-weight="400" font-style="normal" 
>
</g>

<g fill="none" stroke="#000000" stroke-opacity="1" stroke-width="1" stroke-linecap="square" stroke-linejoin="bevel" transform="matrix(1,0,0,1,0,0)"
font-family="Sans Serif" font-size="9" font-weight="400" font-style="normal" 
>
</g>

<g fill="#787878" fill-opacity="1" stroke="#000000" stroke-opacity="0" stroke-width="1" stroke-linecap="square" stroke-linejoin="bevel" transform="matrix(28.8889,22.2222,-28.8889,22.2222,346.667,155.556)"
font-family="Sans Serif" font-size="9" font-weight="400" font-style="normal" 
>
<rect x="0.18" y="0.18" width="0.64" height="0.64"/>
<rect x="0.8" y="0.18" width="0.21" height="0.64"/>
</g>

<g fill="none" stroke="#000000" stroke-opacity="1" stroke-width="1" stroke-linecap="square" stroke-linejoin="bevel" transform="matrix(1,0,0,1,0,0)"
font-family="Sans Serif" font-size="9" font-weight="400" font-style="normal" 
>
</g>

<g fill="#787878" fill-opacity="1" stroke="#000000" stroke-opacity="0" stroke-width="1" stroke-linecap="square" stroke-linejoin="bevel" transform="matrix(28.8889,22.2222,-28.8889,22.2222,375.556,177.778)"
font-family="Sans Serif" font-size="9" font-weight="400" font-style="normal" 
>
<rect x="0.18" y="0.18" width="0.64" height="0.64"/>
<rect x="0.18" y="-0.01" width="0.64" height="0.21"/>
<rect x="0.18" y="0.8" width="0.64" height="0.21"/>
<rect x="-0.01" y="0.18" width="0.21" height="0.64"/>
</g>

<g fill="none" stroke="#000000" stroke-opacity="1" stroke-width="1" stroke-linecap="square" stroke-linejoin="bevel" transform="matrix(1,0,0,1,0,0)"
font-family="Sans Serif" font-size="9" font-weight="400" font-style="normal" 
>
</g>

<g fill="none" stroke="#000000" stroke-opacity="1" stroke-width="1" stroke-linecap="square" stroke-linejoin="bevel" transform="matrix(1,0,0,1,0,0)"
font-family="Sans Serif" font-size="9" font-weight="400" font-style="normal" 
>
</g>

<g fill="none" stroke="#000000" stroke-opacity="1" stroke-width="1" stroke-linecap="square" stroke-linejoin="bevel" transform="matrix(1,0,0,1,0,0)"
font-family="Sans Serif" font-size="9" font-weight="400" font-style="normal" 
>
</g>

<g fill="#787878" fill-opacity="1" stroke="#000000" stroke-opacity="0" stroke-width="1" stroke-linecap="square" stroke-linejoin="bevel" transform="matrix(28.8889,22.2222,-28.8889,22.2222,231.111,111.111)"
font-family="Sans Serif" font-size="9" font-weight="400" font-style="normal" 
>
<rect x="0.18" y="0.18" width="0.64" height="0.64"/>
<rect x="0.18" y="-0.01" width="0.64" height="0.21"/>
<rect x="0.18" y="0.8" width="0.64" height="0.21"/>
</g>

<g fill="none" stroke="#000000" stroke-opacity="1" stroke-width="1" stroke-linecap="square" stroke-linejoin="bevel" transform="matrix(1,0,0,1,0,0)"
font-family="Sans Serif" font-size="9" font-weight="400" font-style="normal" 
>
</g>

<g fill="none" stroke="#000000" stroke-opacity="1" stroke-width="1" stroke-linecap="square" stroke-linejoin="bevel" transform="matrix(1,0,0,1,0,0)"
font-family="Sans Serif" font-size="9" font-weight="400" font-style="normal" 
>
</g>

<g fill="none" stroke="#000000" stroke-opacity="1" stroke-width="1" stroke-linecap="square" stroke-linejoin="bevel" transform="matrix(1,0,0,1,0,0)"
font-family="Sans Serif" font-size="9" font-weight="400" font-style="normal" 
>
</g>

<g fill="#787878" fill-opacity="1" stroke="#000000" stroke-opacity="0" stroke-width="1" stroke-linecap="square" stroke-linejoin="bevel" transform="matrix(28.8889,22.2222,-28.8889,22.2222,317.778,177.778)"
font-family="Sans Serif" font-size="9" font-weight="400" font-style="normal" 
>
<rect x="0.18" y="0.18" width="0.64" height="0.64"/>
<rect x="0.8" y="0.18" width="0.21" height="0.64"/>
<rect x="0.18" y="0.8" width="0.64" height="0.21"/>
</g>

<g fill="none" stroke="#000000" stroke-opacity="1" stroke-width="1" stroke-linecap="square" stroke-linejoin="bevel" transform="matrix(1,0,0,1,0,0)"
font-family="Sans Serif" font-size="9" font-weight="400" font-style="normal" 
>
</g>

<g fill="#787878" fill-opacity="1" stroke="#000000" stroke-opacity="0" stroke-width="1" stroke-linecap="square" stroke-linejoin="bevel" transform="matrix(28.8889,22.2222,-28.8889,22.2222,346.667,200)"
font-family="Sans Serif" font-size="9" font-weight="400" font-style="normal" 
>
<rect x="0.18" y="0.18" width="0.64" height="0.64"/>
<rect x="0.18" y="-0.01" width="0.64" height="0.21"/>
<rect x="0.8" y="0.18" width="0.21" height="0.64"/>
<rect x="-0.01" y="0.18" width="0.21" height="0.64"/>
</g>

<g fill="none" stroke="#000000" stroke-opacity="1" stroke-width="1" stroke-linecap="square" stroke-linejoin="bevel" transform="matrix(1,0,0,1,0,0)"
font-family="Sans Serif" font-size="9" font-weight="400" font-style="normal" 
>
</g>

<g fill="#787878" fill-opacity="1" stroke="#000000" stroke-opacity="0" stroke-width="1" stroke-linecap="square" stroke-linejoin="bevel" transform="matrix(28.8889,22.2222,-28.8889,22.2222,375.556,222.222)"
font-family="Sans Serif" font-size="9" font-weight="400" font-style="normal" 
>
<rect x="0.18" y="0.18" width="0.64" height="0.64"/>
<rect x="0.18" y="0.8" width="0.64" height="0.21"/>
<rect x="-0.01" y="0.18" width="0.21" height="0.64"/>
</g>

<g fill="none" stroke="#000000" stroke-opacity="1" stroke-width="1" stroke-linecap="square" stroke-linejoin="bevel" transform="matrix(1,0,0,1,0,0)"
font-family="Sans Serif" font-size="9" font-weight="400" font-style="normal" 
>
</g>

<g fill="#787878" fill-opacity="1" stroke="#000000" stroke-opacity="0" stroke-width="1" stroke-linecap="square" stroke-linejoin="bevel" transform="matrix(28.8889,22.2222,-28.8889,22.2222,173.333,111.111)"
font-family="Sans Serif" font-size="9" font-weight="400" font-style="normal" 
>
<rect x="0.18" y="0.18" width="0.64" height="0.64"/>
<rect x="0.8" y="0.18" width="0.21" height="0.64"/>
<rect x="0.18" y="0.8" width="0.64" height="0.21"/>
</g>

<g fill="none" stroke="#000000" stroke-opacity="1" stroke-width="1" stroke-linecap="square" stroke-linejoin="bevel" transform="matrix(1,0,0,1,0,0)"
font-family="Sans Serif" font-size="9" font-weight="400" font-style="normal" 
>
</g>

<g fill="#787878" fill-opacity="1" stroke="#000000" stroke-opacity="0" stroke-width="1" stroke-linecap="square" stroke-linejoin="bevel" transform="matrix(28.8889,22.2222,-28.8889,22.2222,202.222,133.333)"
font-family="Sans Serif" font-size="9" font-weight="400" font-style="normal" 
>
<rect x="0.18" y="0.18" width="0.64" height="0.64"/>
<rect x="0.18" y="-0.01" width="0.64" height="0.21"/>
<rect x="0.8" y="0.18" width="0.21" height="0.64"/>
<rect x="0.18" y="0.8" width="0.64" height="0.21"/>
<rect x="-0.01" y="0.18" width="0.21" height="0.64"/>
</g>

<g fill="none" stroke="#000000" stroke-opacity="1" stroke-width="1" stroke-linecap="square" stroke-linejoin="bevel" transform="matrix(1,0,0,1,0,0)"
font-family="Sans Serif" font-size="9" font-weight="400" font-style="normal" 
>
</g>

<g fill="#787878" fill-opacity="1" stroke="#000000" stroke-opacity="0" stroke-width="1" stroke-linecap="square" stroke-linejoin="bevel" transform="matrix(28.8889,22.2222,-28.8889,22.2222,231.111,155.556)"
font-family="Sans Serif" font-size="9" font-weight="400" font-style="normal" 
>
<rect x="-0.01" y="0.18" width="0.21" height="0.64"/>
</g>

<g fill="none" stroke="#000000" stroke-opacity="1" stroke-width="1" stroke-linecap="square" stroke-linejoin="bevel" transform="matrix(1,0,0,1,0,0)"
font-family="Sans Serif" font-size="9" font-weight="400" font-style="normal" 
>
</g>

<g fill="none" stroke="#000000" stroke-opacity="1" stroke-width="1" stroke-linecap="square" stroke-linejoin="bevel" transform="matrix(1,0,0,1,0,0)"
font-family="Sans Serif" font-size="9" font-weight="400" font-style="normal" 
>
</g>

<g fill="#787878" fill-opacity="1" stroke="#000000" stroke-opacity="0" stroke-width="1" stroke-linecap="square" stroke-linejoin="bevel" transform="matrix(28.8889,22.2222,-28.8889,22.2222,288.889,200)"
font-family="Sans Serif" font-size="9" font-weight="400" font-style="normal" 
>
<rect x="0.18" y="0.18" width="0.64" height="0.64"/>
<rect x="0.18" y="-0.01" width="0.64" height="0.21"/>
<rect x="0.18" y="0.8" width="0.64" height="0.21"/>
</g>

<g fill="none" stroke="#000000" stroke-opacity="1" stroke-width="1" stroke-linecap="square" stroke-linejoin="bevel" transform="matrix(1,0,0,1,0,0)"
font-family="Sans Serif" font-size="9" font-weight="400" font-style="normal" 
>
</g>

<g fill="none" stroke="#000000" stroke-opacity="1" stroke-width="1" stroke-linecap="square" stroke-linejoin="bevel" transform="matrix(1,0,0,1,0,0)"
font-family="Sans Serif" font-size="9" font-weight="400" font-style="normal" 
>
</g>

<g fill="#787878" fill-opacity="1" stroke="#000000" stroke-opacity="0" stroke-width="1" stroke-linecap="square" stroke-linejoin="bevel" transform="matrix(28.8889,22.2222,-28.8889,22.2222,346.667,244.444)"
font-family="Sans Serif" font-size="9" font-weight="400" font-style="normal" 
>
<rect x="0.18" y="0.18" width="0.64" height="0.64"/>
<rect x="0.18" y="-0.01" width="0.64" height="0.21"/>
<rect x="0.18" y="0.8" width="0.64" height="0.21"/>
</g>

<g fill="none" stroke="#000000" stroke-opacity="1" stroke-width="1" stroke-linecap="square" stroke-linejoin="bevel" transform="matrix(1,0,0,1,0,0)"
font-family="Sans Serif" font-size="9" font-weight="400" font-style="normal" 
>
</g>

<g fill="#787878" fill-opacity="1" stroke="#000000" stroke-opacity="0" stroke-width="1" stroke-linecap="square" stroke-linejoin="bevel" transform="matrix(28.8889,22.2222,-28.8889,22.2222,144.444,133.333)"
font-family="Sans Serif" font-size="9" font-weight="400" font-style="normal" 
>
<rect x="0.18" y="0.18" width="0.64" height="0.64"/>
<rect x="0.18" y="-0.01" width="0.64" height="0.21"/>
<rect x="0.18" y="0.8" width="0.64" height="0.21"/>
</g>

<g fill="none" stroke="#000000" stroke-opacity="1" stroke-width="1" stroke-linecap="square" stroke-linejoin="bevel" transform="matrix(1,0,0,1,0,0)"
font-family="Sans Serif" font-size="9" font-weight="400" font-style="normal" 
>
</g>

<g fill="#787878" fill-opacity="1" stroke="#000000" stroke-opacity="0" stroke-width="1" stroke-linecap="square" stroke-linejoin="bevel" transform="matrix(28.8889,22.2222,-28.8889,22.2222,173.333,155.556)"
font-family="Sans Serif" font-size="9" font-weight="400" font-style="normal" 
>
<rect x="0.18" y="0.18" width="0.64" height="0.64"/>
<rect x="0.18" y="-0.01" width="0.64" height="0.21"/>
<rect x="0.18" y="0.8" width="0.64" height="0.21"/>
</g>

<g fill="none" stroke="#000000" stroke-opacity="1" stroke-width="1" stroke-linecap="square" stroke-linejoin="bevel" transform="matrix(1,0,0,1,0,0)"
font-family="Sans Serif" font-size="9" font-weight="400" font-style="normal" 
>
</g>

<g fill="none" stroke="#000000" stroke-opacity="1" stroke-width="1" stroke-linecap="square" stroke-linejoin="bevel" transform="matrix(1,0,0,1,0,0)"
font-family="Sans Serif" font-size="9" font-weight="400" font-style="normal" 
>
</g>

<g fill="none" stroke="#000000" stroke-opacity="1" stroke-width="1" stroke-linecap="square" stroke-linejoin="bevel" transform="matrix(1,0,0,1,0,0)"
font-family="Sans Serif" font-size="9" font-weight="400" font-style="normal" 
>
</g>

<g fill="#787878" fill-opacity="1" stroke="#000000" stroke-opacity="0" stroke-width="1" stroke-linecap="square" stroke-linejoin="bevel" transform="matrix(28.8889,22.2222,-28.8889,22.2222,260,222.222)"
font-family="Sans Serif" font-size="9" font-weight="400" font-style="normal" 
>
<rect x="0.18" y="0.18" width="0.64" height="0.64"/>
<rect x="0.18" y="-0.01" width="0.64" height="0.21"/>
<rect x="0.18" y="0.8" width="0.64" height="0.21"/>
</g>

<g fill="none" stroke="#000000" stroke-opacity="1" stroke-width="1" stroke-linecap="square" stroke-linejoin="bevel" transform="matrix(1,0,0,1,0,0)"
font-family="Sans Serif" font-size="9" font-weight="400" font-style="normal" 
>
</g>

<g fill="none" stroke="#000000" stroke-opacity="1" stroke-width="1" stroke-linecap="square" stroke-linejoin="bevel" transform="matrix(1,0,0,1,0,0)"
font-family="Sans Serif" font-size="9" font-weight="400" font-style="normal" 
>
</g>

<g fill="#787878" fill-opacity="1" stroke="#000000" stroke-opacity="0" stroke-width="1" stroke-linecap="square" stroke-linejoin="bevel" transform="matrix(28.8889,22.2222,-28.8889,22.2222,317.778,266.667)"
font-family="Sans Serif" font-size="9" font-weight="400" font-style="normal" 
>
<rect x="0.18" y="0.18" width="0.64" height="0.64"/>
<rect x="0.18" y="-0.01" width="0.64" height="0.21"/>
<rect x="0.18" y="0.8" width="0.64" height="0.21"/>
</g>

<g fill="none" stroke="#000000" stroke-opacity="1" stroke-width="1" stroke-linecap="square" stroke-linejoin="bevel" transform="matrix(1,0,0,1,0,0)"
font-family="Sans Serif" font-size="9" font-weight="400" font-style="normal" 
>
</g>

<g fill="#787878" fill-opacity="1" stroke="#000000" stroke-opacity="0" stroke-width="1" stroke-linecap="square" stroke-linejoin="bevel" transform="matrix(28.8889,22.2222,-28.8889,22.2222,115.556,155.556)"
font-family="Sans Serif" font-size="9" font-weight="400" font-style="normal" 
>
<rect x="0.18" y="0.18" width="0.64" height="0.64"/>
<rect x="0.18" y="-0.01" width="0.64" height="0.21"/>
<rect x="0.18" y="0.8" width="0.64" height="0.21"/>
</g>

<g fill="none" stroke="#000000" stroke-opacity="1" stroke-width="1" stroke-linecap="square" stroke-linejoin="bevel" transform="matrix(1,0,0,1,0,0)"
font-family="Sans Serif" font-size="9" font-weight="400" font-style="normal" 
>
</g>

<g fill="#787878" fill-opacity="1" stroke="#000000" stroke-opacity="0" stroke-width="1" stroke-linecap="square" stroke-linejoin="bevel" transform="matrix(28.8889,22.2222,-28.8889,22.2222,144.444,177.778)"
font-family="Sans Serif" font-size="9" font-weight="400" font-style="normal" 
>
<rect x="0.18" y="0.18" width="0.64" height="0.64"/>
<rect x="0.18" y="-0.01" width="0.64" height="0.21"/>
<rect x="0.8" y="0.18" width="0.21" height="0.64"/>
</g>

<g fill="none" stroke="#000000" stroke-opacity="1" stroke-width="1" stroke-linecap="square" stroke-linejoin="bevel" transform="matrix(1,0,0,1,0,0)"
font-family="Sans Serif" font-size="9" font-weight="400" font-style="normal" 
>
</g>

<g fill="#787878" fill-opacity="1" stroke="#000000" stroke-opacity="0" stroke-width="1" stroke-linecap="square" stroke-linejoin="bevel" transform="matrix(28.8889,22.2222,-28.8889,22.2222,173.333,200)"
font-family="Sans Serif" font-size="9" font-weight="400" font-style="normal" 
>
<rect x="0.18" y="0.18" width="0.64" height="0.64"/>
<rect x="0.8" y="0.18" width="0.21" height="0.64"/>
<rect x="0.18" y="0.8" width="0.64" height="0.21"/>
<rect x="-0.01" y="0.18" width="0.21" height="0.64"/>
</g>

<g fill="none" stroke="#000000" stroke-opacity="1" stroke-width="1" stroke-linecap="square" stroke-linejoin="bevel" transform="matrix(1,0,0,1,0,0)"
font-family="Sans Serif" font-size="9" font-weight="400" font-style="normal" 
>
</g>

<g fill="#787878" fill-opacity="1" stroke="#000000" stroke-opacity="0" stroke-width="1" stroke-linecap="square" stroke-linejoin="bevel" transform="matrix(28.8889,22.2222,-28.8889,22.2222,202.222,222.222)"
font-family="Sans Serif" font-size="9" font-weight="400" font-style="normal" 
>
<rect x="0.18" y="0.18" width="0.64" height="0.64"/>
<rect x="0.8" y="0.18" width="0.21" height="0.64"/>
<rect x="-0.01" y="0.18" width="0.21" height="0.64"/>
</g>

<g fill="none" stroke="#000000" stroke-opacity="1" stroke-width="1" stroke-linecap="square" stroke-linejoin="bevel" transform="matrix(1,0,0,1,0,0)"
font-family="Sans Serif" font-size="9" font-weight="400" font-style="normal" 
>
</g>

<g fill="#787878" fill-opacity="1" stroke="#000000" stroke-opacity="0" stroke-width="1" stroke-linecap="square" stroke-linejoin="bevel" transform="matrix(28.8889,22.2222,-28.8889,22.2222,231.111,244.444)"
font-family="Sans Serif" font-size="9" font-weight="400" font-style="normal" 
>
<rect x="0.18" y="0.18" width="0.64" height="0.64"/>
<rect x="0.18" y="-0.01" width="0.64" height="0.21"/>
<rect x="0.8" y="0.18" width="0.21" height="0.64"/>
<rect x="0.18" y="0.8" width="0.64" height="0.21"/>
<rect x="-0.01" y="0.18" width="0.21" height="0.64"/>
</g>

<g fill="none" stroke="#000000" stroke-opacity="1" stroke-width="1" stroke-linecap="square" stroke-linejoin="bevel" transform="matrix(1,0,0,1,0,0)"
font-family="Sans Serif" font-size="9" font-weight="400" font-style="normal" 
>
</g>

<g fill="#787878" fill-opacity="1" stroke="#000000" stroke-opacity="0" stroke-width="1" stroke-linecap="square" stroke-linejoin="bevel" transform="matrix(28.8889,22.2222,-28.8889,22.2222,260,266.667)"
font-family="Sans Serif" font-size="9" font-weight="400" font-style="normal" 
>
<rect x="0.18" y="0.18" width="0.64" height="0.64"/>
<rect x="0.8" y="0.18" width="0.21" height="0.64"/>
<rect x="-0.01" y="0.18" width="0.21" height="0.64"/>
</g>

<g fill="none" stroke="#000000" stroke-opacity="1" stroke-width="1" stroke-linecap="square" stroke-linejoin="bevel" transform="matrix(1,0,0,1,0,0)"
font-family="Sans Serif" font-size="9" font-weight="400" font-style="normal" 
>
</g>

<g fill="#787878" fill-opacity="1" stroke="#000000" stroke-opacity="0" stroke-width="1" stroke-linecap="square" stroke-linejoin="bevel" transform="matrix(28.8889,22.2222,-28.8889,22.2222,288.889,288.889)"
font-family="Sans Serif" font-size="9" font-weight="400" font-style="normal" 
>
<rect x="0.18" y="0.18" width="0.64" height="0.64"/>
<rect x="0.18" y="-0.01" width="0.64" height="0.21"/>
<rect x="-0.01" y="0.18" width="0.21" height="0.64"/>
</g>

<g fill="none" stroke="#000000" stroke-opacity="1" stroke-width="1" stroke-linecap="square" stroke-linejoin="bevel" transform="matrix(1,0,0,1,0,0)"
font-family="Sans Serif" font-size="9" font-weight="400" font-style="normal" 
>
</g>

<g fill="#787878" fill-opacity="1" stroke="#000000" stroke-opacity="0" stroke-width="1" stroke-linecap="square" stroke-linejoin="bevel" transform="matrix(28.8889,22.2222,-28.8889,22.2222,86.6667,177.778)"
font-family="Sans Serif" font-size="9" font-weight="400" font-style="normal" 
>
<rect x="0.18" y="0.18" width="0.64" height="0.64"/>
<rect x="0.18" y="-0.01" width="0.64" height="0.21"/>
<rect x="0.8" y="0.18" width="0.21" height="0.64"/>
<rect x="0.18" y="0.8" width="0.64" height="0.21"/>
</g>

<g fill="none" stroke="#000000" stroke-opacity="1" stroke-width="1" stroke-linecap="square" stroke-linejoin="bevel" transform="matrix(1,0,0,1,0,0)"
font-family="Sans Serif" font-size="9" font-weight="400" font-style="normal" 
>
</g>

<g fill="#787878" fill-opacity="1" stroke="#000000" stroke-opacity="0" stroke-width="1" stroke-linecap="square" stroke-linejoin="bevel" transform="matrix(28.8889,22.2222,-28.8889,22.2222,115.556,200)"
font-family="Sans Serif" font-size="9" font-weight="400" font-style="normal" 
>
<rect x="0.18" y="0.18" width="0.64" height="0.64"/>
<rect x="0.8" y="0.18" width="0.21" height="0.64"/>
<rect x="0.18" y="0.8" width="0.64" height="0.21"/>
<rect x="-0.01" y="0.18" width="0.21" height="0.64"/>
</g>

<g fill="none" stroke="#000000" stroke-opacity="1" stroke-width="1" stroke-linecap="square" stroke-linejoin="bevel" transform="matrix(1,0,0,1,0,0)"
font-family="Sans Serif" font-size="9" font-weight="400" font-style="normal" 
>
</g>

<g fill="#787878" fill-opacity="1" stroke="#000000" stroke-opacity="0" stroke-width="1" stroke-linecap="square" stroke-linejoin="bevel" transform="matrix(28.8889,22.2222,-28.8889,22.2222,144.444,222.222)"
font-family="Sans Serif" font-size="9" font-weight="400" font-style="normal" 
>
<rect x="0.18" y="0.18" width="0.64" height="0.64"/>
<rect x="0.18" y="-0.01" width="0.64" height="0.21"/>
<rect x="0.18" y="0.8" width="0.64" height="0.21"/>
<rect x="-0.01" y="0.18" width="0.21" height="0.64"/>
</g>

<g fill="none" stroke="#000000" stroke-opacity="1" stroke-width="1" stroke-linecap="square" stroke-linejoin="bevel" transform="matrix(1,0,0,1,0,0)"
font-family="Sans Serif" font-size="9" font-weight="400" font-style="normal" 
>
</g>

<g fill="none" stroke="#000000" stroke-opacity="1" stroke-width="1" stroke-linecap="square" stroke-linejoin="bevel" transform="matrix(1,0,0,1,0,0)"
font-family="Sans Serif" font-size="9" font-weight="400" font-style="normal" 
>
</g>

<g fill="#787878" fill-opacity="1" stroke="#000000" stroke-opacity="0" stroke-width="1" stroke-linecap="square" stroke-linejoin="bevel" transform="matrix(28.8889,22.2222,-28.8889,22.2222,202.222,266.667)"
font-family="Sans Serif" font-size="9" font-weight="400" font-style="normal" 
>
<rect x="0.18" y="-0.01" width="0.64" height="0.21"/>
</g>

<g fill="none" stroke="#000000" stroke-opacity="1" stroke-width="1" stroke-linecap="square" stroke-linejoin="bevel" transform="matrix(1,0,0,1,0,0)"
font-family="Sans Serif" font-size="9" font-weight="400" font-style="normal" 
>
</g>

<g fill="none" stroke="#000000" stroke-opacity="1" stroke-width="1" stroke-linecap="square" stroke-linejoin="bevel" transform="matrix(1,0,0,1,0,0)"
font-family="Sans Serif" font-size="9" font-weight="400" font-style="normal" 
>
</g>

<g fill="none" stroke="#000000" stroke-opacity="1" stroke-width="1" stroke-linecap="square" stroke-linejoin="bevel" transform="matrix(1,0,0,1,0,0)"
font-family="Sans Serif" font-size="9" font-weight="400" font-style="normal" 
>
</g>

<g fill="#787878" fill-opacity="1" stroke="#000000" stroke-opacity="0" stroke-width="1" stroke-linecap="square" stroke-linejoin="bevel" transform="matrix(28.8889,22.2222,-28.8889,22.2222,57.7778,200)"
font-family="Sans Serif" font-size="9" font-weight="400" font-style="normal" 
>
<rect x="0.18" y="0.18" width="0.64" height="0.64"/>
<rect x="0.18" y="-0.01" width="0.64" height="0.21"/>
<rect x="0.8" y="0.18" width="0.21" height="0.64"/>
</g>

<g fill="none" stroke="#000000" stroke-opacity="1" stroke-width="1" stroke-linecap="square" stroke-linejoin="bevel" transform="matrix(1,0,0,1,0,0)"
font-family="Sans Serif" font-size="9" font-weight="400" font-style="normal" 
>
</g>

<g fill="#787878" fill-opacity="1" stroke="#000000" stroke-opacity="0" stroke-width="1" stroke-linecap="square" stroke-linejoin="bevel" transform="matrix(28.8889,22.2222,-28.8889,22.2222,86.6667,222.222)"
font-family="Sans Serif" font-size="9" font-weight="400" font-style="normal" 
>
<rect x="0.18" y="0.18" width="0.64" height="0.64"/>
<rect x="0.18" y="-0.01" width="0.64" height="0.21"/>
<rect x="0.8" y="0.18" width="0.21" height="0.64"/>
<rect x="-0.01" y="0.18" width="0.21" height="0.64"/>
</g>

<g fill="none" stroke="#000000" stroke-opacity="1" stroke-width="1" stroke-linecap="square" stroke-linejoin="bevel" transform="matrix(1,0,0,1,0,0)"
font-family="Sans Serif" font-size="9" font-weight="400" font-style="normal" 
>
</g>

<g fill="#787878" fill-opacity="1" stroke="#000000" stroke-opacity="0" stroke-width="1" stroke-linecap="square" stroke-linejoin="bevel" transform="matrix(28.8889,22.2222,-28.8889,22.2222,115.556,244.444)"
font-family="Sans Serif" font-size="9" font-weight="400" font-style="normal" 
>
<rect x="0.18" y="0.18" width="0.64" height="0.64"/>
<rect x="0.18" y="-0.01" width="0.64" height="0.21"/>
<rect x="-0.01" y="0.18" width="0.21" height="0.64"/>
</g>

<g fill="none" stroke="#000000" stroke-opacity="1" stroke-width="1" stroke-linecap="square" stroke-linejoin="bevel" transform="matrix(1,0,0,1,0,0)"
font-family="Sans Serif" font-size="9" font-weight="400" font-style="normal" 
>
</g>

<g fill="none" stroke="#000000" stroke-opacity="1" stroke-width="1" stroke-linecap="square" stroke-linejoin="bevel" transform="matrix(1,0,0,1,0,0)"
font-family="Sans Serif" font-size="9" font-weight="400" font-style="normal" 
>
</g>

<g fill="none" stroke="#000000" stroke-opacity="1" stroke-width="1" stroke-linecap="square" stroke-linejoin="bevel" transform="matrix(1,0,0,1,0,0)"
font-family="Sans Serif" font-size="9" font-weight="400" font-style="normal" 
>
</g>

<g fill="none" stroke="#000000" stroke-opacity="1" stroke-width="1" stroke-linecap="square" stroke-linejoin="bevel" transform="matrix(1,0,0,1,0,0)"
font-family="Sans Serif" font-size="9" font-weight="400" font-style="normal" 
>
</g>

<g fill="none" stroke="#000000" stroke-opacity="1" stroke-width="1" stroke-linecap="square" stroke-linejoin="bevel" transform="matrix(1,0,0,1,0,0)"
font-family="Sans Serif" font-size="9" font-weight="400" font-style="normal" 
>
</g>
</g>
</svg>
