<?xml version="1.0" encoding="UTF-8" standalone="no"?>
<svg width="183.444mm" height="141.111mm"
 viewBox="0 0 520 400"
 xmlns="http://www.w3.org/2000/svg" xmlns:xlink="http://www.w3.org/1999/xlink"  version="1.2" baseProfile="tiny">
<title>Qt SVG Document</title>
<desc>Generated with Qt</desc>
<defs>
</defs>
<g fill="none" stroke="black" stroke-width="1" fill-rule="evenodd" stroke-linecap="square" stroke-linejoin="bevel" >

<g fill="none" stroke="#000000" stroke-opacity="1" stroke-width="1" stroke-linecap="square" stroke-linejoin="bevel" transform="matrix(1,0,0,1,0,0)"
font-family="Sans Serif" font-size="9" font-weight="400" font-style="normal" 
>
</g>

<g fill="#787878" fill-opacity="1" stroke="#000000" stroke-opacity="0" stroke-width="1" stroke-linecap="square" stroke-linejoin="bevel" transform="matrix(32.5,25,-32.5,25,292.5,25)"
font-family="Sans Serif" font-size="9" font-weight="400" font-style="normal" 
>
<rect x="0.8" y="0.18" width="0.21" height="0.64"/>
</g>

<g fill="none" stroke="#000000" stroke-opacity="1" stroke-width="1" stroke-linecap="square" stroke-linejoin="bevel" transform="matrix(1,0,0,1,0,0)"
font-family="Sans Serif" font-size="9" font-weight="400" font-style="normal" 
>
</g>

<g fill="#787878" fill-opacity="1" stroke="#000000" stroke-opacity="0" stroke-width="1" stroke-linecap="square" stroke-linejoin="bevel" transform="matrix(32.5,25,-32.5,25,325,50)"
font-family="Sans Serif" font-size="9" font-weight="400" font-style="normal" 
>
<rect x="0.18" y="0.18" width="0.64" height="0.64"/>
<rect x="0.18" y="0.8" width="0.64" height="0.21"/>
<rect x="-0.01" y="0.18" width="0.21" height="0.64"/>
</g>

<g fill="none" stroke="#000000" stroke-opacity="1" stroke-width="1" stroke-linecap="square" stroke-linejoin="bevel" transform="matrix(1,0,0,1,0,0)"
font-family="Sans Serif" font-size="9" font-weight="400" font-style="normal" 
>
</g>

<g fill="#636363" fill-opacity="1" stroke="#000000" stroke-opacity="0" stroke-width="1" stroke-linecap="square" stroke-linejoin="bevel" transform="matrix(32.5,25,-32.5,25,357.5,75)"
font-family="Sans Serif" font-size="9" font-weight="400" font-style="normal" 
>
<rect x="-0.01" y="-0.01" width="1.02" height="1.02"/>
</g>

<g fill="none" stroke="#000000" stroke-opacity="1" stroke-width="1" stroke-linecap="square" stroke-linejoin="bevel" transform="matrix(1,0,0,1,0,0)"
font-family="Sans Serif" font-size="9" font-weight="400" font-style="normal" 
>
</g>

<g fill="#636363" fill-opacity="1" stroke="#000000" stroke-opacity="0" stroke-width="1" stroke-linecap="square" stroke-linejoin="bevel" transform="matrix(32.5,25,-32.5,25,390,100)"
font-family="Sans Serif" font-size="9" font-weight="400" font-style="normal" 
>
<rect x="-0.01" y="-0.01" width="1.02" height="1.02"/>
</g>

<g fill="none" stroke="#000000" stroke-opacity="1" stroke-width="1" stroke-linecap="square" stroke-linejoin="bevel" transform="matrix(1,0,0,1,0,0)"
font-family="Sans Serif" font-size="9" font-weight="400" font-style="normal" 
>
</g>

<g fill="none" stroke="#000000" stroke-opacity="1" stroke-width="1" stroke-linecap="square" stroke-linejoin="bevel" transform="matrix(1,0,0,1,0,0)"
font-family="Sans Serif" font-size="9" font-weight="400" font-style="normal" 
>
</g>

<g fill="none" stroke="#000000" stroke-opacity="1" stroke-width="1" stroke-linecap="square" stroke-linejoin="bevel" transform="matrix(1,0,0,1,0,0)"
font-family="Sans Serif" font-size="9" font-weight="400" font-style="normal" 
>
</g>

<g fill="none" stroke="#000000" stroke-opacity="1" stroke-width="1" stroke-linecap="square" stroke-linejoin="bevel" transform="matrix(1,0,0,1,0,0)"
font-family="Sans Serif" font-size="9" font-weight="400" font-style="normal" 
>
</g>

<g fill="#787878" fill-opacity="1" stroke="#000000" stroke-opacity="0" stroke-width="1" stroke-linecap="square" stroke-linejoin="bevel" transform="matrix(32.5,25,-32.5,25,292.5,75)"
font-family="Sans Serif" font-size="9" font-weight="400" font-style="normal" 
>
<rect x="0.18" y="0.18" width="0.64" height="0.64"/>
<rect x="0.18" y="-0.01" width="0.64" height="0.21"/>
<rect x="0.8" y="0.18" width="0.21" height="0.64"/>
<rect x="0.18" y="0.8" width="0.64" height="0.21"/>
</g>

<g fill="none" stroke="#000000" stroke-opacity="1" stroke-width="1" stroke-linecap="square" stroke-linejoin="bevel" transform="matrix(1,0,0,1,0,0)"
font-family="Sans Serif" font-size="9" font-weight="400" font-style="normal" 
>
</g>

<g fill="#636363" fill-opacity="1" stroke="#000000" stroke-opacity="0" stroke-width="1" stroke-linecap="square" stroke-linejoin="bevel" transform="matrix(32.5,25,-32.5,25,325,100)"
font-family="Sans Serif" font-size="9" font-weight="400" font-style="normal" 
>
<rect x="-0.01" y="-0.01" width="1.02" height="1.02"/>
</g>

<g fill="none" stroke="#000000" stroke-opacity="1" stroke-width="1" stroke-linecap="square" stroke-linejoin="bevel" transform="matrix(1,0,0,1,0,0)"
font-family="Sans Serif" font-size="9" font-weight="400" font-style="normal" 
>
</g>

<g fill="#636363" fill-opacity="1" stroke="#000000" stroke-opacity="0" stroke-width="1" stroke-linecap="square" stroke-linejoin="bevel" transform="matrix(32.5,25,-32.5,25,357.5,125)"
font-family="Sans Serif" font-size="9" font-weight="400" font-style="normal" 
>
<rect x="-0.01" y="-0.01" width="1.02" height="1.02"/>
</g>

<g fill="none" stroke="#000000" stroke-opacity="1" stroke-width="1" stroke-linecap="square" stroke-linejoin="bevel" transform="matrix(1,0,0,1,0,0)"
font-family="Sans Serif" font-size="9" font-weight="400" font-style="normal" 
>
</g>

<g fill="none" stroke="#000000" stroke-opacity="1" stroke-width="1" stroke-linecap="square" stroke-linejoin="bevel" transform="matrix(1,0,0,1,0,0)"
font-family="Sans Serif" font-size="9" font-weight="400" font-style="normal" 
>
</g>

<g fill="none" stroke="#000000" stroke-opacity="1" stroke-width="1" stroke-linecap="square" stroke-linejoin="bevel" transform="matrix(1,0,0,1,0,0)"
font-family="Sans Serif" font-size="9" font-weight="400" font-style="normal" 
>
</g>

<g fill="#787878" fill-opacity="1" stroke="#000000" stroke-opacity="0" stroke-width="1" stroke-linecap="square" stroke-linejoin="bevel" transform="matrix(32.5,25,-32.5,25,227.5,75)"
font-family="Sans Serif" font-size="9" font-weight="400" font-style="normal" 
>
<rect x="0.8" y="0.18" width="0.21" height="0.64"/>
</g>

<g fill="none" stroke="#000000" stroke-opacity="1" stroke-width="1" stroke-linecap="square" stroke-linejoin="bevel" transform="matrix(1,0,0,1,0,0)"
font-family="Sans Serif" font-size="9" font-weight="400" font-style="normal" 
>
</g>

<g fill="#787878" fill-opacity="1" stroke="#000000" stroke-opacity="0" stroke-width="1" stroke-linecap="square" stroke-linejoin="bevel" transform="matrix(32.5,25,-32.5,25,260,100)"
font-family="Sans Serif" font-size="9" font-weight="400" font-style="normal" 
>
<rect x="0.18" y="0.18" width="0.64" height="0.64"/>
<rect x="0.18" y="-0.01" width="0.64" height="0.21"/>
<rect x="-0.01" y="0.18" width="0.21" height="0.64"/>
</g>

<g fill="none" stroke="#000000" stroke-opacity="1" stroke-width="1" stroke-linecap="square" stroke-linejoin="bevel" transform="matrix(1,0,0,1,0,0)"
font-family="Sans Serif" font-size="9" font-weight="400" font-style="normal" 
>
</g>

<g fill="#636363" fill-opacity="1" stroke="#000000" stroke-opacity="0" stroke-width="1" stroke-linecap="square" stroke-linejoin="bevel" transform="matrix(32.5,25,-32.5,25,292.5,125)"
font-family="Sans Serif" font-size="9" font-weight="400" font-style="normal" 
>
<rect x="-0.01" y="-0.01" width="1.02" height="1.02"/>
</g>

<g fill="none" stroke="#000000" stroke-opacity="1" stroke-width="1" stroke-linecap="square" stroke-linejoin="bevel" transform="matrix(1,0,0,1,0,0)"
font-family="Sans Serif" font-size="9" font-weight="400" font-style="normal" 
>
</g>

<g fill="#636363" fill-opacity="1" stroke="#000000" stroke-opacity="0" stroke-width="1" stroke-linecap="square" stroke-linejoin="bevel" transform="matrix(32.5,25,-32.5,25,325,150)"
font-family="Sans Serif" font-size="9" font-weight="400" font-style="normal" 
>
<rect x="-0.01" y="-0.01" width="1.02" height="1.02"/>
</g>

<g fill="none" stroke="#000000" stroke-opacity="1" stroke-width="1" stroke-linecap="square" stroke-linejoin="bevel" transform="matrix(1,0,0,1,0,0)"
font-family="Sans Serif" font-size="9" font-weight="400" font-style="normal" 
>
</g>

<g fill="#787878" fill-opacity="1" stroke="#000000" stroke-opacity="0" stroke-width="1" stroke-linecap="square" stroke-linejoin="bevel" transform="matrix(32.5,25,-32.5,25,357.5,175)"
font-family="Sans Serif" font-size="9" font-weight="400" font-style="normal" 
>
<rect x="-0.01" y="0.18" width="0.21" height="0.64"/>
</g>

<g fill="none" stroke="#000000" stroke-opacity="1" stroke-width="1" stroke-linecap="square" stroke-linejoin="bevel" transform="matrix(1,0,0,1,0,0)"
font-family="Sans Serif" font-size="9" font-weight="400" font-style="normal" 
>
</g>

<g fill="none" stroke="#000000" stroke-opacity="1" stroke-width="1" stroke-linecap="square" stroke-linejoin="bevel" transform="matrix(1,0,0,1,0,0)"
font-family="Sans Serif" font-size="9" font-weight="400" font-style="normal" 
>
</g>

<g fill="none" stroke="#000000" stroke-opacity="1" stroke-width="1" stroke-linecap="square" stroke-linejoin="bevel" transform="matrix(1,0,0,1,0,0)"
font-family="Sans Serif" font-size="9" font-weight="400" font-style="normal" 
>
</g>

<g fill="none" stroke="#000000" stroke-opacity="1" stroke-width="1" stroke-linecap="square" stroke-linejoin="bevel" transform="matrix(1,0,0,1,0,0)"
font-family="Sans Serif" font-size="9" font-weight="400" font-style="normal" 
>
</g>

<g fill="#636363" fill-opacity="1" stroke="#000000" stroke-opacity="0" stroke-width="1" stroke-linecap="square" stroke-linejoin="bevel" transform="matrix(32.5,25,-32.5,25,260,150)"
font-family="Sans Serif" font-size="9" font-weight="400" font-style="normal" 
>
<rect x="-0.01" y="-0.01" width="1.02" height="1.02"/>
</g>

<g fill="none" stroke="#000000" stroke-opacity="1" stroke-width="1" stroke-linecap="square" stroke-linejoin="bevel" transform="matrix(1,0,0,1,0,0)"
font-family="Sans Serif" font-size="9" font-weight="400" font-style="normal" 
>
</g>

<g fill="#636363" fill-opacity="1" stroke="#000000" stroke-opacity="0" stroke-width="1" stroke-linecap="square" stroke-linejoin="bevel" transform="matrix(32.5,25,-32.5,25,292.5,175)"
font-family="Sans Serif" font-size="9" font-weight="400" font-style="normal" 
>
<rect x="-0.01" y="-0.01" width="1.02" height="1.02"/>
</g>

<g fill="none" stroke="#000000" stroke-opacity="1" stroke-width="1" stroke-linecap="square" stroke-linejoin="bevel" transform="matrix(1,0,0,1,0,0)"
font-family="Sans Serif" font-size="9" font-weight="400" font-style="normal" 
>
</g>

<g fill="none" stroke="#000000" stroke-opacity="1" stroke-width="1" stroke-linecap="square" stroke-linejoin="bevel" transform="matrix(1,0,0,1,0,0)"
font-family="Sans Serif" font-size="9" font-weight="400" font-style="normal" 
>
</g>

<g fill="none" stroke="#000000" stroke-opacity="1" stroke-width="1" stroke-linecap="square" stroke-linejoin="bevel" transform="matrix(1,0,0,1,0,0)"
font-family="Sans Serif" font-size="9" font-weight="400" font-style="normal" 
>
</g>

<g fill="none" stroke="#000000" stroke-opacity="1" stroke-width="1" stroke-linecap="square" stroke-linejoin="bevel" transform="matrix(1,0,0,1,0,0)"
font-family="Sans Serif" font-size="9" font-weight="400" font-style="normal" 
>
</g>

<g fill="#787878" fill-opacity="1" stroke="#000000" stroke-opacity="0" stroke-width="1" stroke-linecap="square" stroke-linejoin="bevel" transform="matrix(32.5,25,-32.5,25,195,150)"
font-family="Sans Serif" font-size="9" font-weight="400" font-style="normal" 
>
<rect x="0.8" y="0.18" width="0.21" height="0.64"/>
</g>

<g fill="none" stroke="#000000" stroke-opacity="1" stroke-width="1" stroke-linecap="square" stroke-linejoin="bevel" transform="matrix(1,0,0,1,0,0)"
font-family="Sans Serif" font-size="9" font-weight="400" font-style="normal" 
>
</g>

<g fill="#636363" fill-opacity="1" stroke="#000000" stroke-opacity="0" stroke-width="1" stroke-linecap="square" stroke-linejoin="bevel" transform="matrix(32.5,25,-32.5,25,227.5,175)"
font-family="Sans Serif" font-size="9" font-weight="400" font-style="normal" 
>
<rect x="-0.01" y="-0.01" width="1.02" height="1.02"/>
</g>

<g fill="none" stroke="#000000" stroke-opacity="1" stroke-width="1" stroke-linecap="square" stroke-linejoin="bevel" transform="matrix(1,0,0,1,0,0)"
font-family="Sans Serif" font-size="9" font-weight="400" font-style="normal" 
>
</g>

<g fill="#636363" fill-opacity="1" stroke="#000000" stroke-opacity="0" stroke-width="1" stroke-linecap="square" stroke-linejoin="bevel" transform="matrix(32.5,25,-32.5,25,260,200)"
font-family="Sans Serif" font-size="9" font-weight="400" font-style="normal" 
>
<rect x="-0.01" y="-0.01" width="1.02" height="1.02"/>
</g>

<g fill="none" stroke="#000000" stroke-opacity="1" stroke-width="1" stroke-linecap="square" stroke-linejoin="bevel" transform="matrix(1,0,0,1,0,0)"
font-family="Sans Serif" font-size="9" font-weight="400" font-style="normal" 
>
</g>

<g fill="none" stroke="#000000" stroke-opacity="1" stroke-width="1" stroke-linecap="square" stroke-linejoin="bevel" transform="matrix(1,0,0,1,0,0)"
font-family="Sans Serif" font-size="9" font-weight="400" font-style="normal" 
>
</g>

<g fill="none" stroke="#000000" stroke-opacity="1" stroke-width="1" stroke-linecap="square" stroke-linejoin="bevel" transform="matrix(1,0,0,1,0,0)"
font-family="Sans Serif" font-size="9" font-weight="400" font-style="normal" 
>
</g>

<g fill="none" stroke="#000000" stroke-opacity="1" stroke-width="1" stroke-linecap="square" stroke-linejoin="bevel" transform="matrix(1,0,0,1,0,0)"
font-family="Sans Serif" font-size="9" font-weight="400" font-style="normal" 
>
</g>

<g fill="none" stroke="#000000" stroke-opacity="1" stroke-width="1" stroke-linecap="square" stroke-linejoin="bevel" transform="matrix(1,0,0,1,0,0)"
font-family="Sans Serif" font-size="9" font-weight="400" font-style="normal" 
>
</g>

<g fill="#636363" fill-opacity="1" stroke="#000000" stroke-opacity="0" stroke-width="1" stroke-linecap="square" stroke-linejoin="bevel" transform="matrix(32.5,25,-32.5,25,195,200)"
font-family="Sans Serif" font-size="9" font-weight="400" font-style="normal" 
>
<rect x="-0.01" y="-0.01" width="1.02" height="1.02"/>
</g>

<g fill="none" stroke="#000000" stroke-opacity="1" stroke-width="1" stroke-linecap="square" stroke-linejoin="bevel" transform="matrix(1,0,0,1,0,0)"
font-family="Sans Serif" font-size="9" font-weight="400" font-style="normal" 
>
</g>

<g fill="#787878" fill-opacity="1" stroke="#000000" stroke-opacity="0" stroke-width="1" stroke-linecap="square" stroke-linejoin="bevel" transform="matrix(32.5,25,-32.5,25,227.5,225)"
font-family="Sans Serif" font-size="9" font-weight="400" font-style="normal" 
>
<rect x="0.18" y="0.18" width="0.64" height="0.64"/>
<rect x="0.18" y="-0.01" width="0.64" height="0.21"/>
<rect x="0.8" y="0.18" width="0.21" height="0.64"/>
<rect x="0.18" y="0.8" width="0.64" height="0.21"/>
<rect x="-0.01" y="0.18" width="0.21" height="0.64"/>
</g>

<g fill="none" stroke="#000000" stroke-opacity="1" stroke-width="1" stroke-linecap="square" stroke-linejoin="bevel" transform="matrix(1,0,0,1,0,0)"
font-family="Sans Serif" font-size="9" font-weight="400" font-style="normal" 
>
</g>

<g fill="#787878" fill-opacity="1" stroke="#000000" stroke-opacity="0" stroke-width="1" stroke-linecap="square" stroke-linejoin="bevel" transform="matrix(32.5,25,-32.5,25,260,250)"
font-family="Sans Serif" font-size="9" font-weight="400" font-style="normal" 
>
<rect x="0.18" y="0.18" width="0.64" height="0.64"/>
<rect x="0.18" y="0.8" width="0.64" height="0.21"/>
<rect x="-0.01" y="0.18" width="0.21" height="0.64"/>
</g>

<g fill="none" stroke="#000000" stroke-opacity="1" stroke-width="1" stroke-linecap="square" stroke-linejoin="bevel" transform="matrix(1,0,0,1,0,0)"
font-family="Sans Serif" font-size="9" font-weight="400" font-style="normal" 
>
</g>

<g fill="none" stroke="#000000" stroke-opacity="1" stroke-width="1" stroke-linecap="square" stroke-linejoin="bevel" transform="matrix(1,0,0,1,0,0)"
font-family="Sans Serif" font-size="9" font-weight="400" font-style="normal" 
>
</g>

<g fill="none" stroke="#000000" stroke-opacity="1" stroke-width="1" stroke-linecap="square" stroke-linejoin="bevel" transform="matrix(1,0,0,1,0,0)"
font-family="Sans Serif" font-size="9" font-weight="400" font-style="normal" 
>
</g>

<g fill="none" stroke="#000000" stroke-opacity="1" stroke-width="1" stroke-linecap="square" stroke-linejoin="bevel" transform="matrix(1,0,0,1,0,0)"
font-family="Sans Serif" font-size="9" font-weight="400" font-style="normal" 
>
</g>

<g fill="none" stroke="#000000" stroke-opacity="1" stroke-width="1" stroke-linecap="square" stroke-linejoin="bevel" transform="matrix(1,0,0,1,0,0)"
font-family="Sans Serif" font-size="9" font-weight="400" font-style="normal" 
>
</g>

<g fill="#787878" fill-opacity="1" stroke="#000000" stroke-opacity="0" stroke-width="1" stroke-linecap="square" stroke-linejoin="bevel" transform="matrix(32.5,25,-32.5,25,195,250)"
font-family="Sans Serif" font-size="9" font-weight="400" font-style="normal" 
>
<rect x="0.18" y="0.18" width="0.64" height="0.64"/>
<rect x="0.18" y="-0.01" width="0.64" height="0.21"/>
<rect x="0.18" y="0.8" width="0.64" height="0.21"/>
</g>

<g fill="none" stroke="#000000" stroke-opacity="1" stroke-width="1" stroke-linecap="square" stroke-linejoin="bevel" transform="matrix(1,0,0,1,0,0)"
font-family="Sans Serif" font-size="9" font-weight="400" font-style="normal" 
>
</g>

<g fill="#787878" fill-opacity="1" stroke="#000000" stroke-opacity="0" stroke-width="1" stroke-linecap="square" stroke-linejoin="bevel" transform="matrix(32.5,25,-32.5,25,227.5,275)"
font-family="Sans Serif" font-size="9" font-weight="400" font-style="normal" 
>
<rect x="0.18" y="0.18" width="0.64" height="0.64"/>
<rect x="0.18" y="-0.01" width="0.64" height="0.21"/>
<rect x="0.8" y="0.18" width="0.21" height="0.64"/>
<rect x="0.18" y="0.8" width="0.64" height="0.21"/>
</g>

<g fill="none" stroke="#000000" stroke-opacity="1" stroke-width="1" stroke-linecap="square" stroke-linejoin="bevel" transform="matrix(1,0,0,1,0,0)"
font-family="Sans Serif" font-size="9" font-weight="400" font-style="normal" 
>
</g>

<g fill="#787878" fill-opacity="1" stroke="#000000" stroke-opacity="0" stroke-width="1" stroke-linecap="square" stroke-linejoin="bevel" transform="matrix(32.5,25,-32.5,25,260,300)"
font-family="Sans Serif" font-size="9" font-weight="400" font-style="normal" 
>
<rect x="-0.01" y="0.18" width="0.21" height="0.64"/>
</g>

<g fill="none" stroke="#000000" stroke-opacity="1" stroke-width="1" stroke-linecap="square" stroke-linejoin="bevel" transform="matrix(1,0,0,1,0,0)"
font-family="Sans Serif" font-size="9" font-weight="400" font-style="normal" 
>
</g>

<g fill="none" stroke="#000000" stroke-opacity="1" stroke-width="1" stroke-linecap="square" stroke-linejoin="bevel" transform="matrix(1,0,0,1,0,0)"
font-family="Sans Serif" font-size="9" font-weight="400" font-style="normal" 
>
</g>

<g fill="none" stroke="#000000" stroke-opacity="1" stroke-width="1" stroke-linecap="square" stroke-linejoin="bevel" transform="matrix(1,0,0,1,0,0)"
font-family="Sans Serif" font-size="9" font-weight="400" font-style="normal" 
>
</g>

<g fill="none" stroke="#000000" stroke-opacity="1" stroke-width="1" stroke-linecap="square" stroke-linejoin="bevel" transform="matrix(1,0,0,1,0,0)"
font-family="Sans Serif" font-size="9" font-weight="400" font-style="normal" 
>
</g>

<g fill="#787878" fill-opacity="1" stroke="#000000" stroke-opacity="0" stroke-width="1" stroke-linecap="square" stroke-linejoin="bevel" transform="matrix(32.5,25,-32.5,25,162.5,275)"
font-family="Sans Serif" font-size="9" font-weight="400" font-style="normal" 
>
<rect x="0.18" y="0.18" width="0.64" height="0.64"/>
<rect x="0.18" y="-0.01" width="0.64" height="0.21"/>
<rect x="0.8" y="0.18" width="0.21" height="0.64"/>
</g>

<g fill="none" stroke="#000000" stroke-opacity="1" stroke-width="1" stroke-linecap="square" stroke-linejoin="bevel" transform="matrix(1,0,0,1,0,0)"
font-family="Sans Serif" font-size="9" font-weight="400" font-style="normal" 
>
</g>

<g fill="#787878" fill-opacity="1" stroke="#000000" stroke-opacity="0" stroke-width="1" stroke-linecap="square" stroke-linejoin="bevel" transform="matrix(32.5,25,-32.5,25,195,300)"
font-family="Sans Serif" font-size="9" font-weight="400" font-style="normal" 
>
<rect x="0.18" y="0.18" width="0.64" height="0.64"/>
<rect x="0.18" y="-0.01" width="0.64" height="0.21"/>
<rect x="-0.01" y="0.18" width="0.21" height="0.64"/>
</g>

<g fill="none" stroke="#000000" stroke-opacity="1" stroke-width="1" stroke-linecap="square" stroke-linejoin="bevel" transform="matrix(1,0,0,1,0,0)"
font-family="Sans Serif" font-size="9" font-weight="400" font-style="normal" 
>
</g>

<g fill="none" stroke="#000000" stroke-opacity="1" stroke-width="1" stroke-linecap="square" stroke-linejoin="bevel" transform="matrix(1,0,0,1,0,0)"
font-family="Sans Serif" font-size="9" font-weight="400" font-style="normal" 
>
</g>
</g>
</svg>
