<?xml version="1.0" encoding="UTF-8" standalone="no"?>
<svg width="183.444mm" height="141.111mm"
 viewBox="0 0 520 400"
 xmlns="http://www.w3.org/2000/svg" xmlns:xlink="http://www.w3.org/1999/xlink"  version="1.2" baseProfile="tiny">
<title>Qt SVG Document</title>
<desc>Generated with Qt</desc>
<defs>
</defs>
<g fill="none" stroke="black" stroke-width="1" fill-rule="evenodd" stroke-linecap="square" stroke-linejoin="bevel" >

<g fill="none" stroke="#000000" stroke-opacity="1" stroke-width="1" stroke-linecap="square" stroke-linejoin="bevel" transform="matrix(1,0,0,1,0,0)"
font-family="Sans Serif" font-size="9" font-weight="400" font-style="normal" 
>
</g>

<g fill="none" stroke="#000000" stroke-opacity="1" stroke-width="1" stroke-linecap="square" stroke-linejoin="bevel" transform="matrix(1,0,0,1,0,0)"
font-family="Sans Serif" font-size="9" font-weight="400" font-style="normal" 
>
</g>

<g fill="#787878" fill-opacity="1" stroke="#000000" stroke-opacity="0" stroke-width="1" stroke-linecap="square" stroke-linejoin="bevel" transform="matrix(37.1429,28.5714,-37.1429,28.5714,278.571,42.8571)"
font-family="Sans Serif" font-size="9" font-weight="400" font-style="normal" 
>
<rect x="0.18" y="0.8" width="0.64" height="0.21"/>
</g>

<g fill="none" stroke="#000000" stroke-opacity="1" stroke-width="1" stroke-linecap="square" stroke-linejoin="bevel" transform="matrix(1,0,0,1,0,0)"
font-family="Sans Serif" font-size="9" font-weight="400" font-style="normal" 
>
</g>

<g fill="none" stroke="#000000" stroke-opacity="1" stroke-width="1" stroke-linecap="square" stroke-linejoin="bevel" transform="matrix(1,0,0,1,0,0)"
font-family="Sans Serif" font-size="9" font-weight="400" font-style="normal" 
>
</g>

<g fill="none" stroke="#000000" stroke-opacity="1" stroke-width="1" stroke-linecap="square" stroke-linejoin="bevel" transform="matrix(1,0,0,1,0,0)"
font-family="Sans Serif" font-size="9" font-weight="400" font-style="normal" 
>
</g>

<g fill="none" stroke="#000000" stroke-opacity="1" stroke-width="1" stroke-linecap="square" stroke-linejoin="bevel" transform="matrix(1,0,0,1,0,0)"
font-family="Sans Serif" font-size="9" font-weight="400" font-style="normal" 
>
</g>

<g fill="none" stroke="#000000" stroke-opacity="1" stroke-width="1" stroke-linecap="square" stroke-linejoin="bevel" transform="matrix(1,0,0,1,0,0)"
font-family="Sans Serif" font-size="9" font-weight="400" font-style="normal" 
>
</g>

<g fill="none" stroke="#000000" stroke-opacity="1" stroke-width="1" stroke-linecap="square" stroke-linejoin="bevel" transform="matrix(1,0,0,1,0,0)"
font-family="Sans Serif" font-size="9" font-weight="400" font-style="normal" 
>
</g>

<g fill="#787878" fill-opacity="1" stroke="#000000" stroke-opacity="0" stroke-width="1" stroke-linecap="square" stroke-linejoin="bevel" transform="matrix(37.1429,28.5714,-37.1429,28.5714,204.286,42.8571)"
font-family="Sans Serif" font-size="9" font-weight="400" font-style="normal" 
>
<rect x="0.18" y="0.18" width="0.64" height="0.64"/>
<rect x="0.8" y="0.18" width="0.21" height="0.64"/>
<rect x="0.18" y="0.8" width="0.64" height="0.21"/>
</g>

<g fill="none" stroke="#000000" stroke-opacity="1" stroke-width="1" stroke-linecap="square" stroke-linejoin="bevel" transform="matrix(1,0,0,1,0,0)"
font-family="Sans Serif" font-size="9" font-weight="400" font-style="normal" 
>
</g>

<g fill="#787878" fill-opacity="1" stroke="#000000" stroke-opacity="0" stroke-width="1" stroke-linecap="square" stroke-linejoin="bevel" transform="matrix(37.1429,28.5714,-37.1429,28.5714,241.429,71.4286)"
font-family="Sans Serif" font-size="9" font-weight="400" font-style="normal" 
>
<rect x="0.18" y="0.18" width="0.64" height="0.64"/>
<rect x="0.18" y="-0.01" width="0.64" height="0.21"/>
<rect x="0.18" y="0.8" width="0.64" height="0.21"/>
<rect x="-0.01" y="0.18" width="0.21" height="0.64"/>
</g>

<g fill="none" stroke="#000000" stroke-opacity="1" stroke-width="1" stroke-linecap="square" stroke-linejoin="bevel" transform="matrix(1,0,0,1,0,0)"
font-family="Sans Serif" font-size="9" font-weight="400" font-style="normal" 
>
</g>

<g fill="none" stroke="#000000" stroke-opacity="1" stroke-width="1" stroke-linecap="square" stroke-linejoin="bevel" transform="matrix(1,0,0,1,0,0)"
font-family="Sans Serif" font-size="9" font-weight="400" font-style="normal" 
>
</g>

<g fill="#636363" fill-opacity="1" stroke="#000000" stroke-opacity="0" stroke-width="1" stroke-linecap="square" stroke-linejoin="bevel" transform="matrix(37.1429,28.5714,-37.1429,28.5714,315.714,128.571)"
font-family="Sans Serif" font-size="9" font-weight="400" font-style="normal" 
>
<rect x="-0.01" y="-0.01" width="1.02" height="1.02"/>
</g>

<g fill="#f44336" fill-opacity="0.666667" stroke="#000000" stroke-opacity="0" stroke-width="1" stroke-linecap="square" stroke-linejoin="bevel" transform="matrix(37.1429,28.5714,-37.1429,28.5714,315.714,128.571)"
font-family="Sans Serif" font-size="9" font-weight="400" font-style="normal" 
>
<path vector-effect="none" fill-rule="evenodd" d="M0.125,0 L0.375,0 L0,0.375 L0,0.125 L0.125,0"/>
<path vector-effect="none" fill-rule="evenodd" d="M0.625,0 L0.875,0 L0,0.875 L0,0.625 L0.625,0"/>
<path vector-effect="none" fill-rule="evenodd" d="M0.125,1 L0.375,1 L1,0.375 L1,0.125 L0.125,1"/>
<path vector-effect="none" fill-rule="evenodd" d="M0.625,1 L0.875,1 L1,0.875 L1,0.625 L0.625,1"/>
</g>

<g fill="none" stroke="#000000" stroke-opacity="1" stroke-width="1" stroke-linecap="square" stroke-linejoin="bevel" transform="matrix(1,0,0,1,0,0)"
font-family="Sans Serif" font-size="9" font-weight="400" font-style="normal" 
>
</g>

<g fill="#636363" fill-opacity="1" stroke="#000000" stroke-opacity="0" stroke-width="1" stroke-linecap="square" stroke-linejoin="bevel" transform="matrix(37.1429,28.5714,-37.1429,28.5714,352.857,157.143)"
font-family="Sans Serif" font-size="9" font-weight="400" font-style="normal" 
>
<rect x="-0.01" y="-0.01" width="1.02" height="1.02"/>
</g>

<g fill="#f44336" fill-opacity="0.666667" stroke="#000000" stroke-opacity="0" stroke-width="1" stroke-linecap="square" stroke-linejoin="bevel" transform="matrix(37.1429,28.5714,-37.1429,28.5714,352.857,157.143)"
font-family="Sans Serif" font-size="9" font-weight="400" font-style="normal" 
>
<path vector-effect="none" fill-rule="evenodd" d="M0.125,0 L0.375,0 L0,0.375 L0,0.125 L0.125,0"/>
<path vector-effect="none" fill-rule="evenodd" d="M0.625,0 L0.875,0 L0,0.875 L0,0.625 L0.625,0"/>
<path vector-effect="none" fill-rule="evenodd" d="M0.125,1 L0.375,1 L1,0.375 L1,0.125 L0.125,1"/>
<path vector-effect="none" fill-rule="evenodd" d="M0.625,1 L0.875,1 L1,0.875 L1,0.625 L0.625,1"/>
</g>

<g fill="none" stroke="#000000" stroke-opacity="1" stroke-width="1" stroke-linecap="square" stroke-linejoin="bevel" transform="matrix(1,0,0,1,0,0)"
font-family="Sans Serif" font-size="9" font-weight="400" font-style="normal" 
>
</g>

<g fill="none" stroke="#000000" stroke-opacity="1" stroke-width="1" stroke-linecap="square" stroke-linejoin="bevel" transform="matrix(1,0,0,1,0,0)"
font-family="Sans Serif" font-size="9" font-weight="400" font-style="normal" 
>
</g>

<g fill="none" stroke="#000000" stroke-opacity="1" stroke-width="1" stroke-linecap="square" stroke-linejoin="bevel" transform="matrix(1,0,0,1,0,0)"
font-family="Sans Serif" font-size="9" font-weight="400" font-style="normal" 
>
</g>

<g fill="#787878" fill-opacity="1" stroke="#000000" stroke-opacity="0" stroke-width="1" stroke-linecap="square" stroke-linejoin="bevel" transform="matrix(37.1429,28.5714,-37.1429,28.5714,167.143,71.4286)"
font-family="Sans Serif" font-size="9" font-weight="400" font-style="normal" 
>
<rect x="0.18" y="0.18" width="0.64" height="0.64"/>
<rect x="0.18" y="-0.01" width="0.64" height="0.21"/>
<rect x="0.8" y="0.18" width="0.21" height="0.64"/>
</g>

<g fill="none" stroke="#000000" stroke-opacity="1" stroke-width="1" stroke-linecap="square" stroke-linejoin="bevel" transform="matrix(1,0,0,1,0,0)"
font-family="Sans Serif" font-size="9" font-weight="400" font-style="normal" 
>
</g>

<g fill="#787878" fill-opacity="1" stroke="#000000" stroke-opacity="0" stroke-width="1" stroke-linecap="square" stroke-linejoin="bevel" transform="matrix(37.1429,28.5714,-37.1429,28.5714,204.286,100)"
font-family="Sans Serif" font-size="9" font-weight="400" font-style="normal" 
>
<rect x="0.18" y="0.18" width="0.64" height="0.64"/>
<rect x="0.18" y="-0.01" width="0.64" height="0.21"/>
<rect x="0.8" y="0.18" width="0.21" height="0.64"/>
<rect x="-0.01" y="0.18" width="0.21" height="0.64"/>
</g>

<g fill="none" stroke="#000000" stroke-opacity="1" stroke-width="1" stroke-linecap="square" stroke-linejoin="bevel" transform="matrix(1,0,0,1,0,0)"
font-family="Sans Serif" font-size="9" font-weight="400" font-style="normal" 
>
</g>

<g fill="#787878" fill-opacity="1" stroke="#000000" stroke-opacity="0" stroke-width="1" stroke-linecap="square" stroke-linejoin="bevel" transform="matrix(37.1429,28.5714,-37.1429,28.5714,241.429,128.571)"
font-family="Sans Serif" font-size="9" font-weight="400" font-style="normal" 
>
<rect x="0.18" y="0.18" width="0.64" height="0.64"/>
<rect x="0.8" y="0.18" width="0.21" height="0.64"/>
<rect x="-0.01" y="0.18" width="0.21" height="0.64"/>
</g>

<g fill="none" stroke="#000000" stroke-opacity="1" stroke-width="1" stroke-linecap="square" stroke-linejoin="bevel" transform="matrix(1,0,0,1,0,0)"
font-family="Sans Serif" font-size="9" font-weight="400" font-style="normal" 
>
</g>

<g fill="#636363" fill-opacity="1" stroke="#000000" stroke-opacity="0" stroke-width="1" stroke-linecap="square" stroke-linejoin="bevel" transform="matrix(37.1429,28.5714,-37.1429,28.5714,278.571,157.143)"
font-family="Sans Serif" font-size="9" font-weight="400" font-style="normal" 
>
<rect x="-0.01" y="-0.01" width="1.02" height="1.02"/>
</g>

<g fill="#f44336" fill-opacity="0.666667" stroke="#000000" stroke-opacity="0" stroke-width="1" stroke-linecap="square" stroke-linejoin="bevel" transform="matrix(37.1429,28.5714,-37.1429,28.5714,278.571,157.143)"
font-family="Sans Serif" font-size="9" font-weight="400" font-style="normal" 
>
<path vector-effect="none" fill-rule="evenodd" d="M0.125,0 L0.375,0 L0,0.375 L0,0.125 L0.125,0"/>
<path vector-effect="none" fill-rule="evenodd" d="M0.625,0 L0.875,0 L0,0.875 L0,0.625 L0.625,0"/>
<path vector-effect="none" fill-rule="evenodd" d="M0.125,1 L0.375,1 L1,0.375 L1,0.125 L0.125,1"/>
<path vector-effect="none" fill-rule="evenodd" d="M0.625,1 L0.875,1 L1,0.875 L1,0.625 L0.625,1"/>
</g>

<g fill="none" stroke="#000000" stroke-opacity="1" stroke-width="1" stroke-linecap="square" stroke-linejoin="bevel" transform="matrix(1,0,0,1,0,0)"
font-family="Sans Serif" font-size="9" font-weight="400" font-style="normal" 
>
</g>

<g fill="#636363" fill-opacity="1" stroke="#000000" stroke-opacity="0" stroke-width="1" stroke-linecap="square" stroke-linejoin="bevel" transform="matrix(37.1429,28.5714,-37.1429,28.5714,315.714,185.714)"
font-family="Sans Serif" font-size="9" font-weight="400" font-style="normal" 
>
<rect x="-0.01" y="-0.01" width="1.02" height="1.02"/>
</g>

<g fill="#f44336" fill-opacity="0.666667" stroke="#000000" stroke-opacity="0" stroke-width="1" stroke-linecap="square" stroke-linejoin="bevel" transform="matrix(37.1429,28.5714,-37.1429,28.5714,315.714,185.714)"
font-family="Sans Serif" font-size="9" font-weight="400" font-style="normal" 
>
<path vector-effect="none" fill-rule="evenodd" d="M0.125,0 L0.375,0 L0,0.375 L0,0.125 L0.125,0"/>
<path vector-effect="none" fill-rule="evenodd" d="M0.625,0 L0.875,0 L0,0.875 L0,0.625 L0.625,0"/>
<path vector-effect="none" fill-rule="evenodd" d="M0.125,1 L0.375,1 L1,0.375 L1,0.125 L0.125,1"/>
<path vector-effect="none" fill-rule="evenodd" d="M0.625,1 L0.875,1 L1,0.875 L1,0.625 L0.625,1"/>
</g>

<g fill="none" stroke="#000000" stroke-opacity="1" stroke-width="1" stroke-linecap="square" stroke-linejoin="bevel" transform="matrix(1,0,0,1,0,0)"
font-family="Sans Serif" font-size="9" font-weight="400" font-style="normal" 
>
</g>

<g fill="none" stroke="#000000" stroke-opacity="1" stroke-width="1" stroke-linecap="square" stroke-linejoin="bevel" transform="matrix(1,0,0,1,0,0)"
font-family="Sans Serif" font-size="9" font-weight="400" font-style="normal" 
>
</g>

<g fill="none" stroke="#000000" stroke-opacity="1" stroke-width="1" stroke-linecap="square" stroke-linejoin="bevel" transform="matrix(1,0,0,1,0,0)"
font-family="Sans Serif" font-size="9" font-weight="400" font-style="normal" 
>
</g>

<g fill="none" stroke="#000000" stroke-opacity="1" stroke-width="1" stroke-linecap="square" stroke-linejoin="bevel" transform="matrix(1,0,0,1,0,0)"
font-family="Sans Serif" font-size="9" font-weight="400" font-style="normal" 
>
</g>

<g fill="none" stroke="#000000" stroke-opacity="1" stroke-width="1" stroke-linecap="square" stroke-linejoin="bevel" transform="matrix(1,0,0,1,0,0)"
font-family="Sans Serif" font-size="9" font-weight="400" font-style="normal" 
>
</g>

<g fill="none" stroke="#000000" stroke-opacity="1" stroke-width="1" stroke-linecap="square" stroke-linejoin="bevel" transform="matrix(1,0,0,1,0,0)"
font-family="Sans Serif" font-size="9" font-weight="400" font-style="normal" 
>
</g>

<g fill="#787878" fill-opacity="1" stroke="#000000" stroke-opacity="0" stroke-width="1" stroke-linecap="square" stroke-linejoin="bevel" transform="matrix(37.1429,28.5714,-37.1429,28.5714,241.429,185.714)"
font-family="Sans Serif" font-size="9" font-weight="400" font-style="normal" 
>
<rect x="0.18" y="0.18" width="0.64" height="0.64"/>
<rect x="0.8" y="0.18" width="0.21" height="0.64"/>
<rect x="0.18" y="0.8" width="0.64" height="0.21"/>
</g>

<g fill="none" stroke="#000000" stroke-opacity="1" stroke-width="1" stroke-linecap="square" stroke-linejoin="bevel" transform="matrix(1,0,0,1,0,0)"
font-family="Sans Serif" font-size="9" font-weight="400" font-style="normal" 
>
</g>

<g fill="#787878" fill-opacity="1" stroke="#000000" stroke-opacity="0" stroke-width="1" stroke-linecap="square" stroke-linejoin="bevel" transform="matrix(37.1429,28.5714,-37.1429,28.5714,278.571,214.286)"
font-family="Sans Serif" font-size="9" font-weight="400" font-style="normal" 
>
<rect x="0.18" y="0.18" width="0.64" height="0.64"/>
<rect x="0.18" y="-0.01" width="0.64" height="0.21"/>
<rect x="0.8" y="0.18" width="0.21" height="0.64"/>
<rect x="0.18" y="0.8" width="0.64" height="0.21"/>
<rect x="-0.01" y="0.18" width="0.21" height="0.64"/>
</g>

<g fill="none" stroke="#000000" stroke-opacity="1" stroke-width="1" stroke-linecap="square" stroke-linejoin="bevel" transform="matrix(1,0,0,1,0,0)"
font-family="Sans Serif" font-size="9" font-weight="400" font-style="normal" 
>
</g>

<g fill="#787878" fill-opacity="1" stroke="#000000" stroke-opacity="0" stroke-width="1" stroke-linecap="square" stroke-linejoin="bevel" transform="matrix(37.1429,28.5714,-37.1429,28.5714,315.714,242.857)"
font-family="Sans Serif" font-size="9" font-weight="400" font-style="normal" 
>
<rect x="0.18" y="0.18" width="0.64" height="0.64"/>
<rect x="0.8" y="0.18" width="0.21" height="0.64"/>
<rect x="-0.01" y="0.18" width="0.21" height="0.64"/>
</g>

<g fill="none" stroke="#000000" stroke-opacity="1" stroke-width="1" stroke-linecap="square" stroke-linejoin="bevel" transform="matrix(1,0,0,1,0,0)"
font-family="Sans Serif" font-size="9" font-weight="400" font-style="normal" 
>
</g>

<g fill="#787878" fill-opacity="1" stroke="#000000" stroke-opacity="0" stroke-width="1" stroke-linecap="square" stroke-linejoin="bevel" transform="matrix(37.1429,28.5714,-37.1429,28.5714,352.857,271.429)"
font-family="Sans Serif" font-size="9" font-weight="400" font-style="normal" 
>
<rect x="0.18" y="0.18" width="0.64" height="0.64"/>
<rect x="0.18" y="0.8" width="0.64" height="0.21"/>
<rect x="-0.01" y="0.18" width="0.21" height="0.64"/>
</g>

<g fill="none" stroke="#000000" stroke-opacity="1" stroke-width="1" stroke-linecap="square" stroke-linejoin="bevel" transform="matrix(1,0,0,1,0,0)"
font-family="Sans Serif" font-size="9" font-weight="400" font-style="normal" 
>
</g>

<g fill="none" stroke="#000000" stroke-opacity="1" stroke-width="1" stroke-linecap="square" stroke-linejoin="bevel" transform="matrix(1,0,0,1,0,0)"
font-family="Sans Serif" font-size="9" font-weight="400" font-style="normal" 
>
</g>

<g fill="none" stroke="#000000" stroke-opacity="1" stroke-width="1" stroke-linecap="square" stroke-linejoin="bevel" transform="matrix(1,0,0,1,0,0)"
font-family="Sans Serif" font-size="9" font-weight="400" font-style="normal" 
>
</g>

<g fill="none" stroke="#000000" stroke-opacity="1" stroke-width="1" stroke-linecap="square" stroke-linejoin="bevel" transform="matrix(1,0,0,1,0,0)"
font-family="Sans Serif" font-size="9" font-weight="400" font-style="normal" 
>
</g>

<g fill="#787878" fill-opacity="1" stroke="#000000" stroke-opacity="0" stroke-width="1" stroke-linecap="square" stroke-linejoin="bevel" transform="matrix(37.1429,28.5714,-37.1429,28.5714,204.286,214.286)"
font-family="Sans Serif" font-size="9" font-weight="400" font-style="normal" 
>
<rect x="0.18" y="0.18" width="0.64" height="0.64"/>
<rect x="0.18" y="-0.01" width="0.64" height="0.21"/>
<rect x="0.18" y="0.8" width="0.64" height="0.21"/>
</g>

<g fill="none" stroke="#000000" stroke-opacity="1" stroke-width="1" stroke-linecap="square" stroke-linejoin="bevel" transform="matrix(1,0,0,1,0,0)"
font-family="Sans Serif" font-size="9" font-weight="400" font-style="normal" 
>
</g>

<g fill="#787878" fill-opacity="1" stroke="#000000" stroke-opacity="0" stroke-width="1" stroke-linecap="square" stroke-linejoin="bevel" transform="matrix(37.1429,28.5714,-37.1429,28.5714,241.429,242.857)"
font-family="Sans Serif" font-size="9" font-weight="400" font-style="normal" 
>
<rect x="0.18" y="0.18" width="0.64" height="0.64"/>
<rect x="0.18" y="-0.01" width="0.64" height="0.21"/>
<rect x="0.8" y="0.18" width="0.21" height="0.64"/>
</g>

<g fill="none" stroke="#000000" stroke-opacity="1" stroke-width="1" stroke-linecap="square" stroke-linejoin="bevel" transform="matrix(1,0,0,1,0,0)"
font-family="Sans Serif" font-size="9" font-weight="400" font-style="normal" 
>
</g>

<g fill="#787878" fill-opacity="1" stroke="#000000" stroke-opacity="0" stroke-width="1" stroke-linecap="square" stroke-linejoin="bevel" transform="matrix(37.1429,28.5714,-37.1429,28.5714,278.571,271.429)"
font-family="Sans Serif" font-size="9" font-weight="400" font-style="normal" 
>
<rect x="0.18" y="0.18" width="0.64" height="0.64"/>
<rect x="0.18" y="0.8" width="0.64" height="0.21"/>
<rect x="-0.01" y="0.18" width="0.21" height="0.64"/>
</g>

<g fill="none" stroke="#000000" stroke-opacity="1" stroke-width="1" stroke-linecap="square" stroke-linejoin="bevel" transform="matrix(1,0,0,1,0,0)"
font-family="Sans Serif" font-size="9" font-weight="400" font-style="normal" 
>
</g>

<g fill="#787878" fill-opacity="1" stroke="#000000" stroke-opacity="0" stroke-width="1" stroke-linecap="square" stroke-linejoin="bevel" transform="matrix(37.1429,28.5714,-37.1429,28.5714,315.714,300)"
font-family="Sans Serif" font-size="9" font-weight="400" font-style="normal" 
>
<rect x="0.18" y="0.18" width="0.64" height="0.64"/>
<rect x="0.18" y="-0.01" width="0.64" height="0.21"/>
<rect x="0.18" y="0.8" width="0.64" height="0.21"/>
</g>

<g fill="none" stroke="#000000" stroke-opacity="1" stroke-width="1" stroke-linecap="square" stroke-linejoin="bevel" transform="matrix(1,0,0,1,0,0)"
font-family="Sans Serif" font-size="9" font-weight="400" font-style="normal" 
>
</g>

<g fill="none" stroke="#000000" stroke-opacity="1" stroke-width="1" stroke-linecap="square" stroke-linejoin="bevel" transform="matrix(1,0,0,1,0,0)"
font-family="Sans Serif" font-size="9" font-weight="400" font-style="normal" 
>
</g>

<g fill="none" stroke="#000000" stroke-opacity="1" stroke-width="1" stroke-linecap="square" stroke-linejoin="bevel" transform="matrix(1,0,0,1,0,0)"
font-family="Sans Serif" font-size="9" font-weight="400" font-style="normal" 
>
</g>

<g fill="#787878" fill-opacity="1" stroke="#000000" stroke-opacity="0" stroke-width="1" stroke-linecap="square" stroke-linejoin="bevel" transform="matrix(37.1429,28.5714,-37.1429,28.5714,130,214.286)"
font-family="Sans Serif" font-size="9" font-weight="400" font-style="normal" 
>
<rect x="0.8" y="0.18" width="0.21" height="0.64"/>
</g>

<g fill="none" stroke="#000000" stroke-opacity="1" stroke-width="1" stroke-linecap="square" stroke-linejoin="bevel" transform="matrix(1,0,0,1,0,0)"
font-family="Sans Serif" font-size="9" font-weight="400" font-style="normal" 
>
</g>

<g fill="#787878" fill-opacity="1" stroke="#000000" stroke-opacity="0" stroke-width="1" stroke-linecap="square" stroke-linejoin="bevel" transform="matrix(37.1429,28.5714,-37.1429,28.5714,167.143,242.857)"
font-family="Sans Serif" font-size="9" font-weight="400" font-style="normal" 
>
<rect x="0.18" y="0.18" width="0.64" height="0.64"/>
<rect x="0.18" y="-0.01" width="0.64" height="0.21"/>
<rect x="0.8" y="0.18" width="0.21" height="0.64"/>
<rect x="-0.01" y="0.18" width="0.21" height="0.64"/>
</g>

<g fill="none" stroke="#000000" stroke-opacity="1" stroke-width="1" stroke-linecap="square" stroke-linejoin="bevel" transform="matrix(1,0,0,1,0,0)"
font-family="Sans Serif" font-size="9" font-weight="400" font-style="normal" 
>
</g>

<g fill="#787878" fill-opacity="1" stroke="#000000" stroke-opacity="0" stroke-width="1" stroke-linecap="square" stroke-linejoin="bevel" transform="matrix(37.1429,28.5714,-37.1429,28.5714,204.286,271.429)"
font-family="Sans Serif" font-size="9" font-weight="400" font-style="normal" 
>
<rect x="0.18" y="0.18" width="0.64" height="0.64"/>
<rect x="0.8" y="0.18" width="0.21" height="0.64"/>
<rect x="-0.01" y="0.18" width="0.21" height="0.64"/>
</g>

<g fill="none" stroke="#000000" stroke-opacity="1" stroke-width="1" stroke-linecap="square" stroke-linejoin="bevel" transform="matrix(1,0,0,1,0,0)"
font-family="Sans Serif" font-size="9" font-weight="400" font-style="normal" 
>
</g>

<g fill="#787878" fill-opacity="1" stroke="#000000" stroke-opacity="0" stroke-width="1" stroke-linecap="square" stroke-linejoin="bevel" transform="matrix(37.1429,28.5714,-37.1429,28.5714,241.429,300)"
font-family="Sans Serif" font-size="9" font-weight="400" font-style="normal" 
>
<rect x="0.18" y="0.18" width="0.64" height="0.64"/>
<rect x="0.18" y="-0.01" width="0.64" height="0.21"/>
<rect x="0.8" y="0.18" width="0.21" height="0.64"/>
<rect x="-0.01" y="0.18" width="0.21" height="0.64"/>
</g>

<g fill="none" stroke="#000000" stroke-opacity="1" stroke-width="1" stroke-linecap="square" stroke-linejoin="bevel" transform="matrix(1,0,0,1,0,0)"
font-family="Sans Serif" font-size="9" font-weight="400" font-style="normal" 
>
</g>

<g fill="#787878" fill-opacity="1" stroke="#000000" stroke-opacity="0" stroke-width="1" stroke-linecap="square" stroke-linejoin="bevel" transform="matrix(37.1429,28.5714,-37.1429,28.5714,278.571,328.571)"
font-family="Sans Serif" font-size="9" font-weight="400" font-style="normal" 
>
<rect x="0.18" y="0.18" width="0.64" height="0.64"/>
<rect x="0.18" y="-0.01" width="0.64" height="0.21"/>
<rect x="-0.01" y="0.18" width="0.21" height="0.64"/>
</g>

<g fill="none" stroke="#000000" stroke-opacity="1" stroke-width="1" stroke-linecap="square" stroke-linejoin="bevel" transform="matrix(1,0,0,1,0,0)"
font-family="Sans Serif" font-size="9" font-weight="400" font-style="normal" 
>
</g>
</g>
</svg>
