<?xml version="1.0" encoding="UTF-8" standalone="no"?>
<svg
   xmlns:dc="http://purl.org/dc/elements/1.1/"
   xmlns:cc="http://creativecommons.org/ns#"
   xmlns:rdf="http://www.w3.org/1999/02/22-rdf-syntax-ns#"
   xmlns:svg="http://www.w3.org/2000/svg"
   xmlns="http://www.w3.org/2000/svg"
   xmlns:sodipodi="http://sodipodi.sourceforge.net/DTD/sodipodi-0.dtd"
   xmlns:inkscape="http://www.inkscape.org/namespaces/inkscape"
   version="1.1"
   width="24"
   height="24"
   viewBox="0 0 24 24"
   id="svg4216"
   sodipodi:docname="izaro-kill.svg"
   inkscape:version="0.92.2 (5c3e80d, 2017-08-06)">
  <metadata
     id="metadata4222">
    <rdf:RDF>
      <cc:Work
         rdf:about="">
        <dc:format>image/svg+xml</dc:format>
        <dc:type
           rdf:resource="http://purl.org/dc/dcmitype/StillImage" />
      </cc:Work>
    </rdf:RDF>
  </metadata>
  <defs
     id="defs4220" />
  <sodipodi:namedview
     pagecolor="#ffffff"
     bordercolor="#666666"
     borderopacity="1"
     objecttolerance="10"
     gridtolerance="10"
     guidetolerance="10"
     inkscape:pageopacity="0"
     inkscape:pageshadow="2"
     inkscape:window-width="1920"
     inkscape:window-height="1017"
     id="namedview4218"
     showgrid="false"
     inkscape:zoom="9.8333333"
     inkscape:cx="12"
     inkscape:cy="12"
     inkscape:window-x="-8"
     inkscape:window-y="-8"
     inkscape:window-maximized="1"
     inkscape:current-layer="svg4216" />
  <path
     d="M6.2,2.44L18.1,14.34L20.22,12.22L21.63,13.63L19.16,16.1L22.34,19.28C22.73,19.67 22.73,20.3 22.34,20.69L21.63,21.4C21.24,21.79 20.61,21.79 20.22,21.4L17,18.23L14.56,20.7L13.15,19.29L15.27,17.17L3.37,5.27V2.44H6.2M15.89,10L20.63,5.26V2.44H17.8L13.06,7.18L15.89,10M10.94,15L8.11,12.13L5.9,14.34L3.78,12.22L2.37,13.63L4.84,16.1L1.66,19.29C1.27,19.68 1.27,20.31 1.66,20.7L2.37,21.41C2.76,21.8 3.39,21.8 3.78,21.41L7,18.23L9.44,20.7L10.85,19.29L8.73,17.17L10.94,15Z"
     id="path4214"
     style="fill:#fafafa;fill-opacity:1" />
</svg>
