<?xml version="1.0" encoding="UTF-8" standalone="no"?>
<svg
   xmlns:dc="http://purl.org/dc/elements/1.1/"
   xmlns:cc="http://creativecommons.org/ns#"
   xmlns:rdf="http://www.w3.org/1999/02/22-rdf-syntax-ns#"
   xmlns:svg="http://www.w3.org/2000/svg"
   xmlns="http://www.w3.org/2000/svg"
   xmlns:sodipodi="http://sodipodi.sourceforge.net/DTD/sodipodi-0.dtd"
   xmlns:inkscape="http://www.inkscape.org/namespaces/inkscape"
   version="1.1"
   width="24"
   height="24"
   viewBox="0 0 24 24"
   id="svg4"
   sodipodi:docname="loaded-map-cruel.svg"
   inkscape:version="0.92.3 (2405546, 2018-03-11)">
  <metadata
     id="metadata10">
    <rdf:RDF>
      <cc:Work
         rdf:about="">
        <dc:format>image/svg+xml</dc:format>
        <dc:type
           rdf:resource="http://purl.org/dc/dcmitype/StillImage" />
        <dc:title />
      </cc:Work>
    </rdf:RDF>
  </metadata>
  <defs
     id="defs8" />
  <sodipodi:namedview
     pagecolor="#ffffff"
     bordercolor="#666666"
     borderopacity="1"
     objecttolerance="10"
     gridtolerance="10"
     guidetolerance="10"
     inkscape:pageopacity="0"
     inkscape:pageshadow="2"
     inkscape:window-width="1858"
     inkscape:window-height="1051"
     id="namedview6"
     showgrid="false"
     inkscape:zoom="16"
     inkscape:cx="-9.7375265"
     inkscape:cy="11.794848"
     inkscape:window-x="62"
     inkscape:window-y="0"
     inkscape:window-maximized="1"
     inkscape:current-layer="svg4" />
  <path
     style="fill:#fafafa;fill-opacity:0.94117647"
     d="M 9 3 L 3.359375 4.9003906 C 3.149375 4.9703906 3 5.1508594 3 5.3808594 L 3 20.5 A 0.5 0.5 0 0 0 3.5 21 C 3.55 21 3.6101562 21.000703 3.6601562 20.970703 L 5.7167969 20.173828 L 5.7167969 14.509766 C 5.7167969 12.346575 7.0849063 10.529739 9 9.8300781 L 9 5 L 15 7.109375 L 15 9.5097656 L 21 9.5097656 L 21 3.5 A 0.5 0.5 0 0 0 20.5 3 L 20.339844 3 L 15 5.0996094 L 9 3 z "
     id="path2" />
  <g
     aria-label="55"
     style="font-style:normal;font-variant:normal;font-weight:bold;font-stretch:normal;font-size:13.33333302px;line-height:1.25;font-family:'DejaVu Sans Mono';-inkscape-font-specification:'DejaVu Sans Mono, Bold';font-variant-ligatures:normal;font-variant-caps:normal;font-variant-numeric:normal;font-feature-settings:normal;text-align:start;letter-spacing:0px;word-spacing:0px;writing-mode:lr-tb;text-anchor:start;fill:#90caf9;fill-opacity:1;stroke:none"
     id="text4580">
    <path
       d="m 8.5742594,12.674596 h 5.2799476 v 1.692708 h -3.723958 v 1.803385 q 0.234375,-0.09115 0.501302,-0.130208 0.266927,-0.04557 0.566406,-0.04557 1.445313,0 2.34375,0.911458 0.898438,0.911459 0.898438,2.369792 0,1.529948 -0.976563,2.421875 -0.970052,0.885417 -2.649739,0.885417 -0.625,0 -1.2630211,-0.104167 -0.6380208,-0.104167 -1.3020833,-0.3125 v -1.731771 q 0.5403646,0.266927 1.1067708,0.403646 0.5729166,0.130208 1.1458336,0.130208 1.015625,0 1.542968,-0.429687 0.527344,-0.436198 0.527344,-1.263021 0,-0.761719 -0.527344,-1.217448 -0.520833,-0.462239 -1.393229,-0.462239 -0.514323,0 -1.0351559,0.130208 -0.514323,0.123698 -1.0416667,0.377604 z"
       style="font-style:normal;font-variant:normal;font-weight:bold;font-stretch:normal;font-size:13.33333302px;font-family:'DejaVu Sans Mono';-inkscape-font-specification:'DejaVu Sans Mono, Bold';font-variant-ligatures:normal;font-variant-caps:normal;font-variant-numeric:normal;font-feature-settings:normal;text-align:start;writing-mode:lr-tb;text-anchor:start;fill:#90caf9;fill-opacity:1"
       id="path4654" />
    <path
       d="m 16.595092,12.674596 h 5.279948 v 1.692708 h -3.723958 v 1.803385 q 0.234375,-0.09115 0.501302,-0.130208 0.266927,-0.04557 0.566406,-0.04557 1.445313,0 2.34375,0.911458 0.898438,0.911459 0.898438,2.369792 0,1.529948 -0.976563,2.421875 -0.970052,0.885417 -2.649739,0.885417 -0.625,0 -1.263021,-0.104167 -0.638021,-0.104167 -1.302083,-0.3125 v -1.731771 q 0.540364,0.266927 1.10677,0.403646 0.572917,0.130208 1.145834,0.130208 1.015625,0 1.542968,-0.429687 0.527344,-0.436198 0.527344,-1.263021 0,-0.761719 -0.527344,-1.217448 -0.520833,-0.462239 -1.393229,-0.462239 -0.514323,0 -1.035156,0.130208 -0.514323,0.123698 -1.041667,0.377604 z"
       style="font-style:normal;font-variant:normal;font-weight:bold;font-stretch:normal;font-size:13.33333302px;font-family:'DejaVu Sans Mono';-inkscape-font-specification:'DejaVu Sans Mono, Bold';font-variant-ligatures:normal;font-variant-caps:normal;font-variant-numeric:normal;font-feature-settings:normal;text-align:start;writing-mode:lr-tb;text-anchor:start;fill:#90caf9;fill-opacity:1"
       id="path4656" />
  </g>
</svg>
