<?xml version="1.0" encoding="UTF-8" standalone="no"?>
<svg
   xmlns:dc="http://purl.org/dc/elements/1.1/"
   xmlns:cc="http://creativecommons.org/ns#"
   xmlns:rdf="http://www.w3.org/1999/02/22-rdf-syntax-ns#"
   xmlns:svg="http://www.w3.org/2000/svg"
   xmlns="http://www.w3.org/2000/svg"
   xmlns:sodipodi="http://sodipodi.sourceforge.net/DTD/sodipodi-0.dtd"
   xmlns:inkscape="http://www.inkscape.org/namespaces/inkscape"
   version="1.1"
   width="24"
   height="24"
   viewBox="0 0 24 24"
   id="svg4"
   sodipodi:docname="loaded-map-normal.svg"
   inkscape:version="0.92.3 (2405546, 2018-03-11)">
  <metadata
     id="metadata10">
    <rdf:RDF>
      <cc:Work
         rdf:about="">
        <dc:format>image/svg+xml</dc:format>
        <dc:type
           rdf:resource="http://purl.org/dc/dcmitype/StillImage" />
        <dc:title />
      </cc:Work>
    </rdf:RDF>
  </metadata>
  <defs
     id="defs8" />
  <sodipodi:namedview
     pagecolor="#ffffff"
     bordercolor="#666666"
     borderopacity="1"
     objecttolerance="10"
     gridtolerance="10"
     guidetolerance="10"
     inkscape:pageopacity="0"
     inkscape:pageshadow="2"
     inkscape:window-width="1858"
     inkscape:window-height="1051"
     id="namedview6"
     showgrid="false"
     inkscape:zoom="16"
     inkscape:cx="-9.7375265"
     inkscape:cy="9.3605613"
     inkscape:window-x="62"
     inkscape:window-y="0"
     inkscape:window-maximized="1"
     inkscape:current-layer="svg4" />
  <path
     style="fill:#fafafa;fill-opacity:0.94117647"
     d="M 9 3 L 3.359375 4.9003906 C 3.149375 4.9703906 3 5.1508594 3 5.3808594 L 3 20.5 A 0.5 0.5 0 0 0 3.5 21 C 3.55 21 3.6101562 21.000703 3.6601562 20.970703 L 5.7167969 20.173828 L 5.7167969 14.509766 C 5.7167969 12.346575 7.0849063 10.529739 9 9.8300781 L 9 5 L 15 7.109375 L 15 9.5097656 L 21 9.5097656 L 21 3.5 A 0.5 0.5 0 0 0 20.5 3 L 20.339844 3 L 15 5.0996094 L 9 3 z "
     id="path2" />
  <g
     aria-label="33"
     style="font-style:normal;font-variant:normal;font-weight:bold;font-stretch:normal;font-size:13.33333302px;line-height:1.25;font-family:'DejaVu Sans Mono';-inkscape-font-specification:'DejaVu Sans Mono, Bold';font-variant-ligatures:normal;font-variant-caps:normal;font-variant-numeric:normal;font-feature-settings:normal;text-align:start;letter-spacing:0px;word-spacing:0px;writing-mode:lr-tb;text-anchor:start;fill:#90caf9;fill-opacity:1;stroke:none"
     id="text4580">
    <path
       d="M 10.891968,18.045689 H 9.8633219 v -1.692708 h 1.0286461 q 0.716146,0 1.10677,-0.279948 0.397136,-0.286458 0.397136,-0.800781 0,-0.540365 -0.397136,-0.839844 -0.390624,-0.305989 -1.10677,-0.305989 -0.546875,0 -1.1718753,0.136718 -0.625,0.136719 -1.2955729,0.397136 v -1.744792 q 0.6705729,-0.201823 1.3216146,-0.305989 0.6510416,-0.110677 1.2499996,-0.110677 1.536459,0 2.395834,0.670572 0.859375,0.670573 0.859375,1.848959 0,0.865885 -0.494792,1.41927 -0.494792,0.546875 -1.41276,0.716146 1.041666,0.182292 1.588541,0.833334 0.546875,0.644531 0.546875,1.699218 0,1.412761 -0.904948,2.154948 -0.904948,0.742188 -2.630208,0.742188 -0.735677,0 -1.4518229,-0.123698 -0.7096354,-0.123698 -1.360677,-0.358073 v -1.783854 q 0.6119791,0.305989 1.3216145,0.46875 0.7096354,0.15625 1.4908854,0.15625 0.78125,0 1.236979,-0.358073 0.455729,-0.364584 0.455729,-0.976563 0,-0.748698 -0.455729,-1.152343 -0.455729,-0.410157 -1.289062,-0.410157 z"
       style="font-style:normal;font-variant:normal;font-weight:bold;font-stretch:normal;font-size:13.33333302px;font-family:'DejaVu Sans Mono';-inkscape-font-specification:'DejaVu Sans Mono, Bold';font-variant-ligatures:normal;font-variant-caps:normal;font-variant-numeric:normal;font-feature-settings:normal;text-align:start;writing-mode:lr-tb;text-anchor:start;fill:#90caf9;fill-opacity:1"
       id="path4682" />
    <path
       d="m 18.912801,18.045689 h -1.028646 v -1.692708 h 1.028646 q 0.716146,0 1.106771,-0.279948 0.397135,-0.286458 0.397135,-0.800781 0,-0.540365 -0.397135,-0.839844 -0.390625,-0.305989 -1.106771,-0.305989 -0.546875,0 -1.171875,0.136718 -0.625,0.136719 -1.295573,0.397136 v -1.744792 q 0.670573,-0.201823 1.321614,-0.305989 0.651042,-0.110677 1.25,-0.110677 1.536459,0 2.395834,0.670572 0.859375,0.670573 0.859375,1.848959 0,0.865885 -0.494792,1.41927 -0.494792,0.546875 -1.41276,0.716146 1.041666,0.182292 1.588541,0.833334 0.546875,0.644531 0.546875,1.699218 0,1.412761 -0.904948,2.154948 -0.904948,0.742188 -2.630208,0.742188 -0.735677,0 -1.451823,-0.123698 -0.709635,-0.123698 -1.360677,-0.358073 v -1.783854 q 0.611979,0.305989 1.321615,0.46875 0.709635,0.15625 1.490885,0.15625 0.78125,0 1.236979,-0.358073 0.455729,-0.364584 0.455729,-0.976563 0,-0.748698 -0.455729,-1.152343 -0.455729,-0.410157 -1.289062,-0.410157 z"
       style="font-style:normal;font-variant:normal;font-weight:bold;font-stretch:normal;font-size:13.33333302px;font-family:'DejaVu Sans Mono';-inkscape-font-specification:'DejaVu Sans Mono, Bold';font-variant-ligatures:normal;font-variant-caps:normal;font-variant-numeric:normal;font-feature-settings:normal;text-align:start;writing-mode:lr-tb;text-anchor:start;fill:#90caf9;fill-opacity:1"
       id="path4684" />
  </g>
</svg>
