<?xml version="1.0" encoding="UTF-8" standalone="no"?>
<svg
   xmlns:dc="http://purl.org/dc/elements/1.1/"
   xmlns:cc="http://creativecommons.org/ns#"
   xmlns:rdf="http://www.w3.org/1999/02/22-rdf-syntax-ns#"
   xmlns:svg="http://www.w3.org/2000/svg"
   xmlns="http://www.w3.org/2000/svg"
   xmlns:sodipodi="http://sodipodi.sourceforge.net/DTD/sodipodi-0.dtd"
   xmlns:inkscape="http://www.inkscape.org/namespaces/inkscape"
   version="1.1"
   width="24"
   height="24"
   viewBox="0 0 24 24"
   id="svg4"
   sodipodi:docname="loaded-map-merciless.svg"
   inkscape:version="0.92.3 (2405546, 2018-03-11)">
  <metadata
     id="metadata10">
    <rdf:RDF>
      <cc:Work
         rdf:about="">
        <dc:format>image/svg+xml</dc:format>
        <dc:type
           rdf:resource="http://purl.org/dc/dcmitype/StillImage" />
        <dc:title />
      </cc:Work>
    </rdf:RDF>
  </metadata>
  <defs
     id="defs8" />
  <sodipodi:namedview
     pagecolor="#ffffff"
     bordercolor="#666666"
     borderopacity="1"
     objecttolerance="10"
     gridtolerance="10"
     guidetolerance="10"
     inkscape:pageopacity="0"
     inkscape:pageshadow="2"
     inkscape:window-width="1858"
     inkscape:window-height="1051"
     id="namedview6"
     showgrid="false"
     inkscape:zoom="16"
     inkscape:cx="-9.7375265"
     inkscape:cy="11.794848"
     inkscape:window-x="62"
     inkscape:window-y="0"
     inkscape:window-maximized="1"
     inkscape:current-layer="svg4" />
  <path
     style="fill:#fafafa;fill-opacity:0.94117647"
     d="M 9 3 L 3.359375 4.9003906 C 3.149375 4.9703906 3 5.1508594 3 5.3808594 L 3 20.5 A 0.5 0.5 0 0 0 3.5 21 C 3.55 21 3.6101562 21.000703 3.6601562 20.970703 L 5.7167969 20.173828 L 5.7167969 14.509766 C 5.7167969 12.346575 7.0849063 10.529739 9 9.8300781 L 9 5 L 15 7.109375 L 15 9.5097656 L 21 9.5097656 L 21 3.5 A 0.5 0.5 0 0 0 20.5 3 L 20.339844 3 L 15 5.0996094 L 9 3 z "
     id="path2" />
  <g
     aria-label="68"
     style="font-style:normal;font-variant:normal;font-weight:bold;font-stretch:normal;font-size:13.33333302px;line-height:1.25;font-family:'DejaVu Sans Mono';-inkscape-font-specification:'DejaVu Sans Mono, Bold';font-variant-ligatures:normal;font-variant-caps:normal;font-variant-numeric:normal;font-feature-settings:normal;text-align:start;letter-spacing:0px;word-spacing:0px;writing-mode:lr-tb;text-anchor:start;fill:#90caf9;fill-opacity:1;stroke:none"
     id="text4580">
    <path
       d="m 11.503947,17.524856 q -0.625,0 -0.957031,0.455729 -0.325521,0.449219 -0.325521,1.308594 0,0.852864 0.325521,1.308594 0.332031,0.449218 0.957031,0.449218 0.625,0 0.957031,-0.449218 0.338542,-0.45573 0.338542,-1.308594 0,-0.852865 -0.338542,-1.308594 -0.332031,-0.455729 -0.957031,-0.455729 z m 2.519531,-4.622396 v 1.744792 q -0.514323,-0.292969 -0.989583,-0.436198 -0.46875,-0.14974 -0.904948,-0.14974 -1.041667,0 -1.588542,0.703125 -0.540364,0.696615 -0.566406,2.063802 0.30599,-0.423177 0.78125,-0.63151 0.47526,-0.214844 1.119792,-0.214844 1.315104,0 2.03125,0.833334 0.716145,0.826823 0.716145,2.35026 0,1.634115 -0.807291,2.532552 -0.800782,0.898438 -2.259115,0.898438 -1.7773435,0 -2.5846352,-1.191407 -0.8007812,-1.191406 -0.8007812,-3.847656 0,-2.526041 0.9830729,-3.782552 0.9830725,-1.263021 2.9492185,-1.263021 0.455729,0 0.9375,0.09766 0.488281,0.09766 0.983073,0.292968 z"
       style="font-style:normal;font-variant:normal;font-weight:bold;font-stretch:normal;font-size:13.33333302px;font-family:'DejaVu Sans Mono';-inkscape-font-specification:'DejaVu Sans Mono, Bold';font-variant-ligatures:normal;font-variant-caps:normal;font-variant-numeric:normal;font-feature-settings:normal;text-align:start;writing-mode:lr-tb;text-anchor:start;fill:#90caf9;fill-opacity:1"
       id="path4630" />
    <path
       d="m 19.348999,18.05871 q -0.644532,0 -1.041667,0.410156 -0.397135,0.403646 -0.397135,1.074219 0,0.670573 0.397135,1.080729 0.397135,0.410157 1.041667,0.410157 0.644531,0 1.041666,-0.416667 0.403646,-0.416667 0.403646,-1.074219 0,-0.670573 -0.397135,-1.074219 Q 20.00004,18.05871 19.348999,18.05871 Z m -1.425782,-0.813802 q -0.735677,-0.253906 -1.119791,-0.794271 -0.384115,-0.546875 -0.384115,-1.334635 0,-1.210938 0.787761,-1.914063 0.78776,-0.703124 2.141927,-0.703124 1.360677,0 2.148437,0.703124 0.78776,0.703125 0.78776,1.914063 0,0.78125 -0.377604,1.328125 -0.377604,0.540364 -1.10026,0.800781 0.807292,0.247396 1.263021,0.885417 0.455729,0.638021 0.455729,1.529948 0,1.399739 -0.826823,2.161458 -0.826823,0.761719 -2.35026,0.761719 -1.516927,0 -2.34375,-0.761719 -0.826823,-0.761719 -0.826823,-2.161458 0,-0.898438 0.462239,-1.536459 0.46224,-0.63802 1.282552,-0.878906 z m 0.201823,-1.972656 q 0,0.572917 0.325521,0.911458 0.332031,0.332031 0.898438,0.332031 0.572916,0 0.898437,-0.332031 0.332031,-0.338541 0.332031,-0.911458 0,-0.566406 -0.332031,-0.891927 -0.325521,-0.332031 -0.898437,-0.332031 -0.559896,0 -0.891927,0.332031 -0.332032,0.332031 -0.332032,0.891927 z"
       style="font-style:normal;font-variant:normal;font-weight:bold;font-stretch:normal;font-size:13.33333302px;font-family:'DejaVu Sans Mono';-inkscape-font-specification:'DejaVu Sans Mono, Bold';font-variant-ligatures:normal;font-variant-caps:normal;font-variant-numeric:normal;font-feature-settings:normal;text-align:start;writing-mode:lr-tb;text-anchor:start;fill:#90caf9;fill-opacity:1"
       id="path4632" />
  </g>
</svg>
