<?xml version="1.0" encoding="UTF-8" standalone="no"?>
<svg
   xmlns:dc="http://purl.org/dc/elements/1.1/"
   xmlns:cc="http://creativecommons.org/ns#"
   xmlns:rdf="http://www.w3.org/1999/02/22-rdf-syntax-ns#"
   xmlns:svg="http://www.w3.org/2000/svg"
   xmlns="http://www.w3.org/2000/svg"
   xmlns:sodipodi="http://sodipodi.sourceforge.net/DTD/sodipodi-0.dtd"
   xmlns:inkscape="http://www.inkscape.org/namespaces/inkscape"
   version="1.1"
   width="24"
   height="24"
   viewBox="0 0 24 24"
   id="svg847"
   sodipodi:docname="secret.svg"
   inkscape:version="0.92.2 (5c3e80d, 2017-08-06)">
  <metadata
     id="metadata853">
    <rdf:RDF>
      <cc:Work
         rdf:about="">
        <dc:format>image/svg+xml</dc:format>
        <dc:type
           rdf:resource="http://purl.org/dc/dcmitype/StillImage" />
      </cc:Work>
    </rdf:RDF>
  </metadata>
  <defs
     id="defs851" />
  <sodipodi:namedview
     pagecolor="#ffffff"
     bordercolor="#666666"
     borderopacity="1"
     objecttolerance="10"
     gridtolerance="10"
     guidetolerance="10"
     inkscape:pageopacity="0"
     inkscape:pageshadow="2"
     inkscape:window-width="1920"
     inkscape:window-height="1017"
     id="namedview849"
     showgrid="false"
     inkscape:zoom="9.8333333"
     inkscape:cx="12"
     inkscape:cy="12"
     inkscape:window-x="-8"
     inkscape:window-y="-8"
     inkscape:window-maximized="1"
     inkscape:current-layer="svg847" />
  <path
     d="M5.68,19.74C7.16,20.95 9,21.75 11,21.95V19.93C9.54,19.75 8.21,19.17 7.1,18.31M13,19.93V21.95C15,21.75 16.84,20.95 18.32,19.74L16.89,18.31C15.79,19.17 14.46,19.75 13,19.93M18.31,16.9L19.74,18.33C20.95,16.85 21.75,15 21.95,13H19.93C19.75,14.46 19.17,15.79 18.31,16.9M15,12A3,3 0 0,0 12,9A3,3 0 0,0 9,12A3,3 0 0,0 12,15A3,3 0 0,0 15,12M4.07,13H2.05C2.25,15 3.05,16.84 4.26,18.32L5.69,16.89C4.83,15.79 4.25,14.46 4.07,13M5.69,7.1L4.26,5.68C3.05,7.16 2.25,9 2.05,11H4.07C4.25,9.54 4.83,8.21 5.69,7.1M19.93,11H21.95C21.75,9 20.95,7.16 19.74,5.68L18.31,7.1C19.17,8.21 19.75,9.54 19.93,11M18.32,4.26C16.84,3.05 15,2.25 13,2.05V4.07C14.46,4.25 15.79,4.83 16.9,5.69M11,4.07V2.05C9,2.25 7.16,3.05 5.68,4.26L7.1,5.69C8.21,4.83 9.54,4.25 11,4.07Z"
     id="path845"
     style="fill:#8bc34a;fill-opacity:1" />
</svg>
