<?xml version="1.0" encoding="UTF-8" standalone="no"?>
<svg
   xmlns:dc="http://purl.org/dc/elements/1.1/"
   xmlns:cc="http://creativecommons.org/ns#"
   xmlns:rdf="http://www.w3.org/1999/02/22-rdf-syntax-ns#"
   xmlns:svg="http://www.w3.org/2000/svg"
   xmlns="http://www.w3.org/2000/svg"
   xmlns:sodipodi="http://sodipodi.sourceforge.net/DTD/sodipodi-0.dtd"
   xmlns:inkscape="http://www.inkscape.org/namespaces/inkscape"
   version="1.1"
   width="64"
   height="64"
   viewBox="0 0 64 64"
   id="svg827"
   sodipodi:docname="map-marker-light.svg"
   inkscape:version="0.92.2 (5c3e80d, 2017-08-06)">
  <metadata
     id="metadata833">
    <rdf:RDF>
      <cc:Work
         rdf:about="">
        <dc:format>image/svg+xml</dc:format>
        <dc:type
           rdf:resource="http://purl.org/dc/dcmitype/StillImage" />
        <dc:title></dc:title>
      </cc:Work>
    </rdf:RDF>
  </metadata>
  <defs
     id="defs831" />
  <sodipodi:namedview
     pagecolor="#ffffff"
     bordercolor="#666666"
     borderopacity="1"
     objecttolerance="10"
     gridtolerance="10"
     guidetolerance="10"
     inkscape:pageopacity="0"
     inkscape:pageshadow="2"
     inkscape:window-width="1920"
     inkscape:window-height="1017"
     id="namedview829"
     showgrid="false"
     inkscape:zoom="3.0788608"
     inkscape:cx="-94.258736"
     inkscape:cy="36.658838"
     inkscape:window-x="-8"
     inkscape:window-y="-8"
     inkscape:window-maximized="1"
     inkscape:current-layer="svg827" />
  <path
     d="M 32,30.667 A 6.665,6.665 0 0 1 25.335,24.002 6.665,6.665 0 0 1 32,17.337 6.665,6.665 0 0 1 38.665,24.002 6.665,6.665 0 0 1 32,30.667 M 32,5.34 A 18.662,18.662 0 0 0 13.338,24.002 C 13.338,37.9985 32,58.66 32,58.66 c 0,0 18.662,-20.6615 18.662,-34.658 A 18.662,18.662 0 0 0 32,5.34 Z"
     id="path825"
     inkscape:connector-curvature="0"
     style="stroke-width:2.66599989;fill:#fafafa;fill-opacity:1" />
</svg>
