<?xml version="1.0" encoding="UTF-8" standalone="no"?>
<svg
   xmlns:dc="http://purl.org/dc/elements/1.1/"
   xmlns:cc="http://creativecommons.org/ns#"
   xmlns:rdf="http://www.w3.org/1999/02/22-rdf-syntax-ns#"
   xmlns:svg="http://www.w3.org/2000/svg"
   xmlns="http://www.w3.org/2000/svg"
   xmlns:sodipodi="http://sodipodi.sourceforge.net/DTD/sodipodi-0.dtd"
   xmlns:inkscape="http://www.inkscape.org/namespaces/inkscape"
   version="1.1"
   width="64"
   height="64"
   viewBox="0 0 64 64"
   id="svg842"
   sodipodi:docname="puzzle-light.svg"
   inkscape:version="0.92.2 (5c3e80d, 2017-08-06)">
  <metadata
     id="metadata848">
    <rdf:RDF>
      <cc:Work
         rdf:about="">
        <dc:format>image/svg+xml</dc:format>
        <dc:type
           rdf:resource="http://purl.org/dc/dcmitype/StillImage" />
        <dc:title></dc:title>
      </cc:Work>
    </rdf:RDF>
  </metadata>
  <defs
     id="defs846" />
  <sodipodi:namedview
     pagecolor="#ffffff"
     bordercolor="#666666"
     borderopacity="1"
     objecttolerance="10"
     gridtolerance="10"
     guidetolerance="10"
     inkscape:pageopacity="0"
     inkscape:pageshadow="2"
     inkscape:window-width="1920"
     inkscape:window-height="1017"
     id="namedview844"
     showgrid="false"
     inkscape:zoom="3.0788608"
     inkscape:cx="-91.216602"
     inkscape:cy="-27.098721"
     inkscape:window-x="-8"
     inkscape:window-y="-8"
     inkscape:window-maximized="1"
     inkscape:current-layer="svg842" />
  <path
     d="M 53.328,30.667 H 49.329 V 20.003 c 0,-2.95926 -2.3994,-5.332 -5.332,-5.332 H 33.333 v -3.999 a 6.665,6.665 0 0 0 -6.665,-6.665 6.665,6.665 0 0 0 -6.665,6.665 v 3.999 H 9.339 a 5.332,5.332 0 0 0 -5.332,5.332 v 10.1308 h 3.999 c 3.999,0 7.1982,3.1992 7.1982,7.1982 0,3.999 -3.1992,7.1982 -7.1982,7.1982 H 4.007 V 54.661 a 5.332,5.332 0 0 0 5.332,5.332 h 10.1308 v -3.999 c 0,-3.999 3.1992,-7.1982 7.1982,-7.1982 3.999,0 7.1982,3.1992 7.1982,7.1982 v 3.999 H 43.997 a 5.332,5.332 0 0 0 5.332,-5.332 V 43.997 h 3.999 a 6.665,6.665 0 0 0 6.665,-6.665 6.665,6.665 0 0 0 -6.665,-6.665 z"
     id="path840"
     inkscape:connector-curvature="0"
     style="stroke-width:2.66599989;fill:#fafafa;fill-opacity:1" />
</svg>
