<?xml version="1.0" encoding="UTF-8" standalone="no"?>
<!-- Created with Inkscape (http://www.inkscape.org/) -->

<svg
   xmlns:dc="http://purl.org/dc/elements/1.1/"
   xmlns:cc="http://creativecommons.org/ns#"
   xmlns:rdf="http://www.w3.org/1999/02/22-rdf-syntax-ns#"
   xmlns:svg="http://www.w3.org/2000/svg"
   xmlns="http://www.w3.org/2000/svg"
   xmlns:sodipodi="http://sodipodi.sourceforge.net/DTD/sodipodi-0.dtd"
   xmlns:inkscape="http://www.inkscape.org/namespaces/inkscape"
   width="64"
   height="64"
   id="svg3168"
   version="1.1"
   inkscape:version="0.92.2 (5c3e80d, 2017-08-06)"
   sodipodi:docname="patreon.svg">
  <defs
     id="defs3170" />
  <sodipodi:namedview
     id="base"
     pagecolor="#ffffff"
     bordercolor="#666666"
     borderopacity="1.0"
     inkscape:pageopacity="0.0"
     inkscape:pageshadow="2"
     inkscape:zoom="2.8"
     inkscape:cx="-155.68765"
     inkscape:cy="76.756412"
     inkscape:document-units="px"
     inkscape:current-layer="layer1"
     showgrid="false"
     inkscape:snap-center="true"
     inkscape:object-nodes="true"
     fit-margin-top="0"
     fit-margin-left="0"
     fit-margin-right="0"
     fit-margin-bottom="0"
     inkscape:window-width="1920"
     inkscape:window-height="1017"
     inkscape:window-x="-8"
     inkscape:window-y="-8"
     inkscape:window-maximized="1" />
  <metadata
     id="metadata3173">
    <rdf:RDF>
      <cc:Work
         rdf:about="">
        <dc:format>image/svg+xml</dc:format>
        <dc:type
           rdf:resource="http://purl.org/dc/dcmitype/StillImage" />
        <dc:title></dc:title>
      </cc:Work>
    </rdf:RDF>
  </metadata>
  <g
     inkscape:label="Layer 1"
     inkscape:groupmode="layer"
     id="layer1"
     transform="translate(-78.58618,-687.88113)">
    <path
       inkscape:connector-curvature="0"
       id="path3204"
       d="m 110.58617,695.8812 c -13.254968,0 -23.99999,10.74501 -23.99999,24 v 23.97783 h 22.99435 c 0.3334,0.0137 0.66886,0.0221 1.00564,0.0221 13.25499,0 24.00001,-10.74501 24.00001,-23.99999 0,-13.25499 -10.74502,-24.00001 -24.00001,-24.00001 z"
       style="fill:#ff5900;fill-opacity:1;stroke:none;stroke-width:0.08865289" />
    <path
       style="fill:#ffffff;fill-opacity:1;stroke:none;stroke-width:0.08865289"
       d="m 110.58618,701.45248 c -10.17735,0 -18.42872,8.25135 -18.42872,18.42872 v 10.98464 7.42468 5.56852 h 7.37481 v -23.95845 c 0,-6.08523 4.93266,-11.02067 11.01789,-11.02067 6.08523,0 11.0179,4.93544 11.0179,11.02067 0,6.08522 -4.93267,11.01789 -11.0179,11.01789 -2.2248,0 -4.29638,-0.6612 -6.0284,-1.79522 v 7.92058 c 1.16051,0.71411 3.81001,1.21847 6.9177,1.24391 9.78095,-0.44624 17.57544,-8.51544 17.57544,-18.40655 0,-10.17737 -8.25136,-18.42872 -18.42872,-18.42872 z m -0.77294,36.83804 c 0.25599,0.0105 0.51435,0.0194 0.77294,0.0194 0.27221,0 0.5424,-0.007 0.81173,-0.0194 z"
       id="path3192"
       inkscape:connector-curvature="0" />
  </g>
</svg>
