<?xml version="1.0" encoding="UTF-8" standalone="no"?>
<!-- Generator: Adobe Illustrator 15.0.0, SVG Export Plug-In . SVG Version: 6.00 Build 0)  -->

<svg
   xmlns:dc="http://purl.org/dc/elements/1.1/"
   xmlns:cc="http://creativecommons.org/ns#"
   xmlns:rdf="http://www.w3.org/1999/02/22-rdf-syntax-ns#"
   xmlns:svg="http://www.w3.org/2000/svg"
   xmlns="http://www.w3.org/2000/svg"
   xmlns:sodipodi="http://sodipodi.sourceforge.net/DTD/sodipodi-0.dtd"
   xmlns:inkscape="http://www.inkscape.org/namespaces/inkscape"
   version="1.1"
   id="Layer_1"
   x="0px"
   y="0px"
   width="64"
   height="64"
   viewBox="0 0 33.28 33.28"
   enable-background="new 0 0 26 26"
   xml:space="preserve"
   sodipodi:docname="paypal.svg"
   inkscape:version="0.92.2 (5c3e80d, 2017-08-06)"><metadata
     id="metadata15"><rdf:RDF><cc:Work
         rdf:about=""><dc:format>image/svg+xml</dc:format><dc:type
           rdf:resource="http://purl.org/dc/dcmitype/StillImage" /><dc:title></dc:title></cc:Work></rdf:RDF></metadata><defs
     id="defs13" /><sodipodi:namedview
     pagecolor="#ffffff"
     bordercolor="#666666"
     borderopacity="1"
     objecttolerance="10"
     gridtolerance="10"
     guidetolerance="10"
     inkscape:pageopacity="0"
     inkscape:pageshadow="2"
     inkscape:window-width="1920"
     inkscape:window-height="1017"
     id="namedview11"
     showgrid="false"
     inkscape:zoom="4.72"
     inkscape:cx="89.069003"
     inkscape:cy="51.519844"
     inkscape:window-x="-8"
     inkscape:window-y="-8"
     inkscape:window-maximized="1"
     inkscape:current-layer="Layer_1" /><path
     inkscape:connector-curvature="0"
     style="fill:#003087;stroke-width:0.71254879"
     d="M 24.311968,5.7023821 C 23.11917,4.3428311 20.962995,3.7599665 18.204713,3.7599665 H 10.199225 A 1.146491,1.146491 0 0 0 9.0662745,4.7268959 L 5.7344023,25.868936 a 0.68689705,0.68689705 0 0 0 0.6790573,0.793775 h 4.9422324 l 1.241266,-7.872951 -0.03851,0.24655 a 1.1429283,1.1429283 0 0 1 1.12796,-0.96693 h 2.34856 c 4.613755,0 8.226379,-1.874011 9.281662,-7.295077 0.03133,-0.160325 0.05845,-0.316378 0.08198,-0.468864 0.313518,-2.0036881 -0.0025,-3.3674989 -1.085919,-4.6023511"
     id="path8" /><path
     inkscape:connector-curvature="0"
     style="fill:#003087;stroke-width:0.71254879"
     d="M 24.311968,5.7023821 C 23.11917,4.3428311 20.962995,3.7599665 18.204713,3.7599665 H 10.199225 A 1.146491,1.146491 0 0 0 9.0662745,4.7268959 L 5.7344023,25.868936 a 0.68689705,0.68689705 0 0 0 0.6790573,0.793775 h 4.9422324 l 1.241266,-7.872951 -0.03851,0.24655 a 1.1429283,1.1429283 0 0 1 1.12796,-0.96693 h 2.34856 c 4.613755,0 8.226379,-1.874011 9.281662,-7.295077 0.03133,-0.160325 0.05845,-0.316378 0.08198,-0.468864 0.313518,-2.0036881 -0.0025,-3.3674989 -1.085919,-4.6023511"
     id="path20" /><path
     inkscape:connector-curvature="0"
     style="fill:#003087;stroke-width:0.71254879"
     d="M 13.930133,10.331802 A 1.0032687,1.0032687 0 0 1 14.91986,9.4860178 h 6.276138 c 0.743189,0 1.4365,0.048418 2.06995,0.1496261 a 8.6973704,8.6973704 0 0 1 1.026071,0.2294483 5.669751,5.669751 0 0 1 1.105163,0.4403468 C 25.712124,8.3010451 25.395944,6.9379401 24.311968,5.7023821 23.118451,4.3435493 20.962995,3.7606847 18.204713,3.7606847 H 10.198519 A 1.146491,1.146491 0 0 0 9.0669925,4.7276141 L 5.7336841,25.867512 a 0.68689705,0.68689705 0 0 0 0.6783514,0.794493 h 4.9429505 l 1.241254,-7.873669 z"
     id="path22" /><path
     inkscape:connector-curvature="0"
     style="fill:#009cde;stroke-width:0.71254879"
     d="m 25.3979,10.304733 a 13.035368,13.035368 0 0 1 -0.08198,0.468852 c -1.055284,5.42036 -4.667908,7.295077 -9.281663,7.295077 h -2.349241 a 1.1415032,1.1415032 0 0 0 -1.127254,0.966929 l -1.20278,7.625696 -0.342024,2.163294 a 0.60139118,0.60139118 0 0 0 0.594269,0.695453 h 4.166265 c 0.493086,0 0.912071,-0.359125 0.989739,-0.845797 l 0.04062,-0.212335 0.78523,-4.976447 0.04991,-0.275043 a 1.0025562,1.0025562 0 0 1 0.990445,-0.845797 h 0.623481 c 4.035882,0 7.196023,-1.638854 8.119488,-6.38158 0.384783,-1.98089 0.185265,-3.63614 -0.833674,-4.798303 a 3.9788726,3.9788726 0 0 0 -1.140793,-0.879999"
     id="path24" /><path
     inkscape:connector-curvature="0"
     style="fill:#012169;stroke-width:0.71254879"
     d="M 24.292737,9.8650922 C 24.131694,9.817293 23.965672,9.774571 23.794661,9.736827 23.623649,9.6990583 23.44694,9.6656237 23.265948,9.6370185 22.631779,9.5337426 21.939187,9.48525 21.195279,9.48525 H 14.91986 a 1.0004185,1.0004185 0 0 0 -0.989727,0.846503 l -1.333893,8.457958 -0.03851,0.245831 a 1.1415032,1.1415032 0 0 1 1.127255,-0.966929 h 2.349265 c 4.613756,0 8.22638,-1.873999 9.281663,-7.295077 0.03133,-0.160326 0.05771,-0.31566 0.08198,-0.468853 A 5.6989651,5.6989651 0 0 0 24.529999,9.9384254 c -0.07764,-0.025633 -0.156758,-0.049904 -0.237274,-0.074052"
     id="path26" /></svg>